<?xml version="1.0" encoding="UTF-8" standalone="no"?>
<!DOCTYPE svg PUBLIC "-//W3C//DTD SVG 1.1//EN" "http://www.w3.org/Graphics/SVG/1.1/DTD/svg11.dtd">
<svg xmlns="http://www.w3.org/2000/svg" version="1.1" viewBox="0.00 0.00 438.00 348.00">
<g stroke-width="2.00" fill="none" stroke-linecap="butt">
<path stroke="#808080" vector-effect="non-scaling-stroke" d="
  M 84.31 53.83
  Q 84.83 53.92 85.38 54.39
  Q 105.12 71.28 125.61 89.03
  Q 126.56 89.85 126.64 88.60
  C 127.66 73.21 131.12 57.31 135.18 42.46
  Q 135.59 40.95 134.39 39.86
  Q 120.02 26.85 105.45 14.06
  Q 101.81 10.86 96.50 11.22
  C 68.49 13.09 38.79 12.00 9.91 11.10
  A 0.91 0.90 0.0 0 0 8.98 12.02
  L 9.14 22.73
  A 0.88 0.88 0.0 0 0 10.06 23.60
  Q 17.49 23.32 24.61 23.06
  C 35.70 22.67 50.68 25.84 56.34 36.28
  C 58.83 40.88 59.12 47.60 59.15 53.09
  Q 59.54 128.55 58.99 204.00
  C 58.88 218.44 58.13 230.96 56.62 244.40
  C 55.53 254.21 49.46 257.61 40.15 259.00
  C 30.16 260.49 19.54 260.07 9.52 259.98
  A 0.54 0.54 0.0 0 0 8.98 260.53
  L 9.15 270.72
  A 0.87 0.87 0.0 0 0 10.06 271.58
  C 48.30 269.83 86.71 270.19 124.97 270.76
  C 128.01 270.80 130.93 271.40 133.94 271.85
  A 0.61 0.60 -85.1 0 0 134.64 271.25
  L 134.83 260.53
  Q 134.84 259.97 134.29 259.93
  Q 121.13 258.99 107.97 258.12
  C 103.50 257.83 98.23 256.62 94.75 255.47
  C 88.93 253.55 86.63 243.37 86.16 238.00
  Q 83.91 212.30 83.88 186.50
  Q 83.81 120.36 83.82 54.24
  A 0.42 0.42 0.0 0 1 84.31 53.83"
/>
<path stroke="#808080" vector-effect="non-scaling-stroke" d="
  M 356.95 229.69
  A 0.34 0.34 0.0 0 1 356.39 229.95
  Q 332.79 210.72 309.26 191.48
  Q 307.87 190.35 306.93 189.85
  Q 305.62 189.17 305.09 190.54
  C 300.15 203.36 293.72 213.36 285.12 223.77
  A 1.89 1.88 -50.3 0 0 285.36 226.42
  Q 306.54 244.13 328.29 261.14
  C 337.26 268.15 342.93 271.34 353.50 272.56
  Q 368.29 274.26 383.96 276.08
  Q 385.28 276.23 385.73 274.99
  Q 386.14 273.85 385.90 271.74
  Q 381.51 234.38 381.51 196.77
  Q 381.51 143.76 381.48 90.75
  Q 381.46 55.70 382.76 42.25
  C 383.72 32.33 386.45 27.33 396.15 25.00
  C 407.71 22.22 419.73 23.09 431.35 23.64
  A 0.96 0.96 0.0 0 0 432.36 22.70
  L 432.60 11.80
  A 0.59 0.59 0.0 0 0 432.02 11.20
  Q 428.01 11.15 423.75 11.33
  C 384.09 13.04 344.27 12.56 304.66 11.11
  A 0.91 0.90 0.9 0 0 303.72 12.01
  L 303.71 22.25
  A 1.68 1.67 -2.1 0 0 305.52 23.92
  Q 313.75 23.29 321.76 24.07
  Q 332.71 25.14 343.46 27.38
  C 349.04 28.54 354.04 31.65 354.72 37.75
  Q 356.90 57.44 356.94 77.25
  Q 357.13 153.55 356.95 229.69"
/>
<path stroke="#808080" vector-effect="non-scaling-stroke" d="
  M 204.50 211.02
  C 195.65 215.85 184.45 214.52 178.20 206.51
  C 170.42 196.53 165.10 183.00 162.26 171.24
  Q 157.46 151.28 156.91 128.25
  Q 155.90 86.65 161.93 43.56
  Q 162.13 42.16 160.72 42.15
  L 146.04 41.97
  A 1.23 1.22 8.4 0 0 144.85 42.85
  C 135.09 76.16 132.36 109.44 135.20 143.74
  C 137.57 172.33 147.94 213.42 176.62 226.71
  C 186.12 231.11 195.89 229.22 204.60 224.20
  A 2.08 2.07 -14.7 0 0 205.64 222.44
  L 205.84 211.83
  A 0.91 0.90 -13.8 0 0 204.50 211.02"
/>
<path stroke="#808080" vector-effect="non-scaling-stroke" d="
  M 237.02 211.52
  Q 236.11 211.11 236.06 212.11
  Q 235.88 215.75 236.05 220.00
  C 236.13 222.32 235.62 223.31 237.96 224.60
  Q 242.62 227.19 244.26 227.73
  C 257.19 232.00 270.90 226.10 279.58 216.31
  C 296.61 197.10 304.35 167.76 306.49 142.05
  Q 310.66 91.86 296.69 43.48
  A 2.08 2.06 -8.2 0 0 294.67 41.98
  L 280.82 42.14
  Q 279.06 42.16 279.32 43.89
  Q 285.97 89.27 283.60 134.02
  C 282.56 153.44 279.46 172.10 272.60 190.27
  C 269.46 198.59 263.28 208.68 255.44 212.26
  Q 247.20 216.02 237.02 211.52"
/>
<path stroke="#808080" vector-effect="non-scaling-stroke" d="
  M 233.47 143.00
  Q 234.19 143.00 234.19 143.72
  L 234.20 180.73
  A 3.28 3.26 20.6 0 0 235.31 183.16
  L 254.31 199.70
  A 1.63 1.62 39.1 0 0 256.68 199.46
  C 259.09 196.27 261.29 192.93 262.98 189.22
  Q 269.14 175.72 271.20 160.95
  Q 271.45 159.13 270.60 158.40
  Q 219.68 114.85 168.87 71.18
  Q 168.40 70.79 167.96 71.01
  A 0.67 0.67 0.0 0 0 167.59 71.59
  Q 166.68 96.36 165.89 121.01
  Q 165.80 123.58 167.34 124.91
  Q 187.03 141.91 206.84 158.95
  A 0.88 0.88 0.0 0 0 208.29 158.28
  L 208.30 144.19
  Q 208.30 143.00 209.49 143.00
  L 233.47 143.00"
/>
<path stroke="#808080" vector-effect="non-scaling-stroke" d="
  M 229.00 148.89
  A 0.87 0.87 0.0 0 0 228.13 148.02
  L 213.93 148.02
  A 0.87 0.87 0.0 0 0 213.06 148.89
  L 213.06 318.65
  A 0.87 0.87 0.0 0 0 213.93 319.52
  L 228.13 319.52
  A 0.87 0.87 0.0 0 0 229.00 318.65
  L 229.00 148.89"
/>
<path stroke="#808080" vector-effect="non-scaling-stroke" d="
  M 261.32 328.39
  A 1.31 1.31 0.0 0 0 260.01 327.08
  L 180.07 327.08
  A 1.31 1.31 0.0 0 0 178.76 328.39
  L 178.76 335.97
  A 1.31 1.31 0.0 0 0 180.07 337.28
  L 260.01 337.28
  A 1.31 1.31 0.0 0 0 261.32 335.97
  L 261.32 328.39"
/>
</g>
<path fill="#ffffff" d="
  M 0.00 0.00
  L 438.00 0.00
  L 438.00 348.00
  L 0.00 348.00
  L 0.00 0.00
  Z
  M 84.31 53.83
  Q 84.83 53.92 85.38 54.39
  Q 105.12 71.28 125.61 89.03
  Q 126.56 89.85 126.64 88.60
  C 127.66 73.21 131.12 57.31 135.18 42.46
  Q 135.59 40.95 134.39 39.86
  Q 120.02 26.85 105.45 14.06
  Q 101.81 10.86 96.50 11.22
  C 68.49 13.09 38.79 12.00 9.91 11.10
  A 0.91 0.90 0.0 0 0 8.98 12.02
  L 9.14 22.73
  A 0.88 0.88 0.0 0 0 10.06 23.60
  Q 17.49 23.32 24.61 23.06
  C 35.70 22.67 50.68 25.84 56.34 36.28
  C 58.83 40.88 59.12 47.60 59.15 53.09
  Q 59.54 128.55 58.99 204.00
  C 58.88 218.44 58.13 230.96 56.62 244.40
  C 55.53 254.21 49.46 257.61 40.15 259.00
  C 30.16 260.49 19.54 260.07 9.52 259.98
  A 0.54 0.54 0.0 0 0 8.98 260.53
  L 9.15 270.72
  A 0.87 0.87 0.0 0 0 10.06 271.58
  C 48.30 269.83 86.71 270.19 124.97 270.76
  C 128.01 270.80 130.93 271.40 133.94 271.85
  A 0.61 0.60 -85.1 0 0 134.64 271.25
  L 134.83 260.53
  Q 134.84 259.97 134.29 259.93
  Q 121.13 258.99 107.97 258.12
  C 103.50 257.83 98.23 256.62 94.75 255.47
  C 88.93 253.55 86.63 243.37 86.16 238.00
  Q 83.91 212.30 83.88 186.50
  Q 83.81 120.36 83.82 54.24
  A 0.42 0.42 0.0 0 1 84.31 53.83
  Z
  M 356.95 229.69
  A 0.34 0.34 0.0 0 1 356.39 229.95
  Q 332.79 210.72 309.26 191.48
  Q 307.87 190.35 306.93 189.85
  Q 305.62 189.17 305.09 190.54
  C 300.15 203.36 293.72 213.36 285.12 223.77
  A 1.89 1.88 -50.3 0 0 285.36 226.42
  Q 306.54 244.13 328.29 261.14
  C 337.26 268.15 342.93 271.34 353.50 272.56
  Q 368.29 274.26 383.96 276.08
  Q 385.28 276.23 385.73 274.99
  Q 386.14 273.85 385.90 271.74
  Q 381.51 234.38 381.51 196.77
  Q 381.51 143.76 381.48 90.75
  Q 381.46 55.70 382.76 42.25
  C 383.72 32.33 386.45 27.33 396.15 25.00
  C 407.71 22.22 419.73 23.09 431.35 23.64
  A 0.96 0.96 0.0 0 0 432.36 22.70
  L 432.60 11.80
  A 0.59 0.59 0.0 0 0 432.02 11.20
  Q 428.01 11.15 423.75 11.33
  C 384.09 13.04 344.27 12.56 304.66 11.11
  A 0.91 0.90 0.9 0 0 303.72 12.01
  L 303.71 22.25
  A 1.68 1.67 -2.1 0 0 305.52 23.92
  Q 313.75 23.29 321.76 24.07
  Q 332.71 25.14 343.46 27.38
  C 349.04 28.54 354.04 31.65 354.72 37.75
  Q 356.90 57.44 356.94 77.25
  Q 357.13 153.55 356.95 229.69
  Z
  M 204.50 211.02
  C 195.65 215.85 184.45 214.52 178.20 206.51
  C 170.42 196.53 165.10 183.00 162.26 171.24
  Q 157.46 151.28 156.91 128.25
  Q 155.90 86.65 161.93 43.56
  Q 162.13 42.16 160.72 42.15
  L 146.04 41.97
  A 1.23 1.22 8.4 0 0 144.85 42.85
  C 135.09 76.16 132.36 109.44 135.20 143.74
  C 137.57 172.33 147.94 213.42 176.62 226.71
  C 186.12 231.11 195.89 229.22 204.60 224.20
  A 2.08 2.07 -14.7 0 0 205.64 222.44
  L 205.84 211.83
  A 0.91 0.90 -13.8 0 0 204.50 211.02
  Z
  M 237.02 211.52
  Q 236.11 211.11 236.06 212.11
  Q 235.88 215.75 236.05 220.00
  C 236.13 222.32 235.62 223.31 237.96 224.60
  Q 242.62 227.19 244.26 227.73
  C 257.19 232.00 270.90 226.10 279.58 216.31
  C 296.61 197.10 304.35 167.76 306.49 142.05
  Q 310.66 91.86 296.69 43.48
  A 2.08 2.06 -8.2 0 0 294.67 41.98
  L 280.82 42.14
  Q 279.06 42.16 279.32 43.89
  Q 285.97 89.27 283.60 134.02
  C 282.56 153.44 279.46 172.10 272.60 190.27
  C 269.46 198.59 263.28 208.68 255.44 212.26
  Q 247.20 216.02 237.02 211.52
  Z
  M 233.47 143.00
  Q 234.19 143.00 234.19 143.72
  L 234.20 180.73
  A 3.28 3.26 20.6 0 0 235.31 183.16
  L 254.31 199.70
  A 1.63 1.62 39.1 0 0 256.68 199.46
  C 259.09 196.27 261.29 192.93 262.98 189.22
  Q 269.14 175.72 271.20 160.95
  Q 271.45 159.13 270.60 158.40
  Q 219.68 114.85 168.87 71.18
  Q 168.40 70.79 167.96 71.01
  A 0.67 0.67 0.0 0 0 167.59 71.59
  Q 166.68 96.36 165.89 121.01
  Q 165.80 123.58 167.34 124.91
  Q 187.03 141.91 206.84 158.95
  A 0.88 0.88 0.0 0 0 208.29 158.28
  L 208.30 144.19
  Q 208.30 143.00 209.49 143.00
  L 233.47 143.00
  Z
  M 229.00 148.89
  A 0.87 0.87 0.0 0 0 228.13 148.02
  L 213.93 148.02
  A 0.87 0.87 0.0 0 0 213.06 148.89
  L 213.06 318.65
  A 0.87 0.87 0.0 0 0 213.93 319.52
  L 228.13 319.52
  A 0.87 0.87 0.0 0 0 229.00 318.65
  L 229.00 148.89
  Z
  M 261.32 328.39
  A 1.31 1.31 0.0 0 0 260.01 327.08
  L 180.07 327.08
  A 1.31 1.31 0.0 0 0 178.76 328.39
  L 178.76 335.97
  A 1.31 1.31 0.0 0 0 180.07 337.28
  L 260.01 337.28
  A 1.31 1.31 0.0 0 0 261.32 335.97
  L 261.32 328.39
  Z"
/>
<g>
<path fill="#000000" d="
  M 84.31 53.83
  A 0.42 0.42 0.0 0 0 83.82 54.24
  Q 83.81 120.36 83.88 186.50
  Q 83.91 212.30 86.16 238.00
  C 86.63 243.37 88.93 253.55 94.75 255.47
  C 98.23 256.62 103.50 257.83 107.97 258.12
  Q 121.13 258.99 134.29 259.93
  Q 134.84 259.97 134.83 260.53
  L 134.64 271.25
  A 0.61 0.60 -85.1 0 1 133.94 271.85
  C 130.93 271.40 128.01 270.80 124.97 270.76
  C 86.71 270.19 48.30 269.83 10.06 271.58
  A 0.87 0.87 0.0 0 1 9.15 270.72
  L 8.98 260.53
  A 0.54 0.54 0.0 0 1 9.52 259.98
  C 19.54 260.07 30.16 260.49 40.15 259.00
  C 49.46 257.61 55.53 254.21 56.62 244.40
  C 58.13 230.96 58.88 218.44 58.99 204.00
  Q 59.54 128.55 59.15 53.09
  C 59.12 47.60 58.83 40.88 56.34 36.28
  C 50.68 25.84 35.70 22.67 24.61 23.06
  Q 17.49 23.32 10.06 23.60
  A 0.88 0.88 0.0 0 1 9.14 22.73
  L 8.98 12.02
  A 0.91 0.90 0.0 0 1 9.91 11.10
  C 38.79 12.00 68.49 13.09 96.50 11.22
  Q 101.81 10.86 105.45 14.06
  Q 120.02 26.85 134.39 39.86
  Q 135.59 40.95 135.18 42.46
  C 131.12 57.31 127.66 73.21 126.64 88.60
  Q 126.56 89.85 125.61 89.03
  Q 105.12 71.28 85.38 54.39
  Q 84.83 53.92 84.31 53.83
  Z"
/>
<path fill="#000000" d="
  M 356.95 229.69
  Q 357.13 153.55 356.94 77.25
  Q 356.90 57.44 354.72 37.75
  C 354.04 31.65 349.04 28.54 343.46 27.38
  Q 332.71 25.14 321.76 24.07
  Q 313.75 23.29 305.52 23.92
  A 1.68 1.67 -2.1 0 1 303.71 22.25
  L 303.72 12.01
  A 0.91 0.90 0.9 0 1 304.66 11.11
  C 344.27 12.56 384.09 13.04 423.75 11.33
  Q 428.01 11.15 432.02 11.20
  A 0.59 0.59 0.0 0 1 432.60 11.80
  L 432.36 22.70
  A 0.96 0.96 0.0 0 1 431.35 23.64
  C 419.73 23.09 407.71 22.22 396.15 25.00
  C 386.45 27.33 383.72 32.33 382.76 42.25
  Q 381.46 55.70 381.48 90.75
  Q 381.51 143.76 381.51 196.77
  Q 381.51 234.38 385.90 271.74
  Q 386.14 273.85 385.73 274.99
  Q 385.28 276.23 383.96 276.08
  Q 368.29 274.26 353.50 272.56
  C 342.93 271.34 337.26 268.15 328.29 261.14
  Q 306.54 244.13 285.36 226.42
  A 1.89 1.88 -50.3 0 1 285.12 223.77
  C 293.72 213.36 300.15 203.36 305.09 190.54
  Q 305.62 189.17 306.93 189.85
  Q 307.87 190.35 309.26 191.48
  Q 332.79 210.72 356.39 229.95
  A 0.34 0.34 0.0 0 0 356.95 229.69
  Z"
/>
<path fill="#000000" d="
  M 178.20 206.51
  C 184.45 214.52 195.65 215.85 204.50 211.02
  A 0.91 0.90 -13.8 0 1 205.84 211.83
  L 205.64 222.44
  A 2.08 2.07 -14.7 0 1 204.60 224.20
  C 195.89 229.22 186.12 231.11 176.62 226.71
  C 147.94 213.42 137.57 172.33 135.20 143.74
  C 132.36 109.44 135.09 76.16 144.85 42.85
  A 1.23 1.22 8.4 0 1 146.04 41.97
  L 160.72 42.15
  Q 162.13 42.16 161.93 43.56
  Q 155.90 86.65 156.91 128.25
  Q 157.46 151.28 162.26 171.24
  C 165.10 183.00 170.42 196.53 178.20 206.51
  Z"
/>
<path fill="#000000" d="
  M 237.02 211.52
  Q 247.20 216.02 255.44 212.26
  C 263.28 208.68 269.46 198.59 272.60 190.27
  C 279.46 172.10 282.56 153.44 283.60 134.02
  Q 285.97 89.27 279.32 43.89
  Q 279.06 42.16 280.82 42.14
  L 294.67 41.98
  A 2.08 2.06 -8.2 0 1 296.69 43.48
  Q 310.66 91.86 306.49 142.05
  C 304.35 167.76 296.61 197.10 279.58 216.31
  C 270.90 226.10 257.19 232.00 244.26 227.73
  Q 242.62 227.19 237.96 224.60
  C 235.62 223.31 236.13 222.32 236.05 220.00
  Q 235.88 215.75 236.06 212.11
  Q 236.11 211.11 237.02 211.52
  Z"
/>
<path fill="#000000" d="
  M 233.47 143.00
  L 209.49 143.00
  Q 208.30 143.00 208.30 144.19
  L 208.29 158.28
  A 0.88 0.88 0.0 0 1 206.84 158.95
  Q 187.03 141.91 167.34 124.91
  Q 165.80 123.58 165.89 121.01
  Q 166.68 96.36 167.59 71.59
  A 0.67 0.67 0.0 0 1 167.96 71.01
  Q 168.40 70.79 168.87 71.18
  Q 219.68 114.85 270.60 158.40
  Q 271.45 159.13 271.20 160.95
  Q 269.14 175.72 262.98 189.22
  C 261.29 192.93 259.09 196.27 256.68 199.46
  A 1.63 1.62 39.1 0 1 254.31 199.70
  L 235.31 183.16
  A 3.28 3.26 20.6 0 1 234.20 180.73
  L 234.19 143.72
  Q 234.19 143.00 233.47 143.00
  Z"
/>
<path fill="#000000" d="
  M 229.00 318.65
  A 0.87 0.87 0.0 0 1 228.13 319.52
  L 213.93 319.52
  A 0.87 0.87 0.0 0 1 213.06 318.65
  L 213.06 148.89
  A 0.87 0.87 0.0 0 1 213.93 148.02
  L 228.13 148.02
  A 0.87 0.87 0.0 0 1 229.00 148.89
  L 229.00 318.65
  Z"
/>
<path fill="#000000" d="
  M 261.32 335.97
  A 1.31 1.31 0.0 0 1 260.01 337.28
  L 180.07 337.28
  A 1.31 1.31 0.0 0 1 178.76 335.97
  L 178.76 328.39
  A 1.31 1.31 0.0 0 1 180.07 327.08
  L 260.01 327.08
  A 1.31 1.31 0.0 0 1 261.32 328.39
  L 261.32 335.97
  Z"
/>
</g>
</svg>
