<?xml version="1.0" encoding="UTF-8" standalone="no"?>
<!DOCTYPE svg PUBLIC "-//W3C//DTD SVG 1.1//EN" "http://www.w3.org/Graphics/SVG/1.1/DTD/svg11.dtd">
<svg xmlns="http://www.w3.org/2000/svg" version="1.1" viewBox="0.00 0.00 408.00 408.00">
<g stroke-width="2.00" fill="none" stroke-linecap="butt">
<path stroke="#808080" vector-effect="non-scaling-stroke" d="
  M 196.60 22.99
  C 193.84 25.40 190.20 24.66 189.57 20.80
  C 188.85 16.38 192.87 11.55 196.47 16.36
  A 0.67 0.67 0.0 0 0 197.65 16.12
  Q 198.31 13.50 196.24 12.91
  C 185.82 9.95 183.70 23.10 190.48 26.33
  C 191.94 27.02 197.65 27.01 198.17 24.45
  Q 198.36 23.50 197.45 22.92
  Q 197.00 22.64 196.60 22.99"
/>
<path stroke="#808080" vector-effect="non-scaling-stroke" d="
  M 202.5419 13.3644
  A 0.77 0.77 0.0 0 0 201.7746 12.5918
  L 200.7946 12.5883
  A 0.77 0.77 0.0 0 0 200.0219 13.3556
  L 199.9781 25.9156
  A 0.77 0.77 0.0 0 0 200.7454 26.6882
  L 201.7254 26.6917
  A 0.77 0.77 0.0 0 0 202.4981 25.9244
  L 202.5419 13.3644"
/>
<path stroke="#808080" vector-effect="non-scaling-stroke" d="
  M 184.7648 13.4115
  A 0.59 0.59 0.0 0 0 184.1556 12.8413
  L 182.7963 12.8864
  A 0.59 0.59 0.0 0 0 182.2262 13.4957
  L 182.6552 26.4285
  A 0.59 0.59 0.0 0 0 183.2644 26.9987
  L 184.6237 26.9536
  A 0.59 0.59 0.0 0 0 185.1938 26.3443
  L 184.7648 13.4115"
/>
<path stroke="#808080" vector-effect="non-scaling-stroke" d="
  M 211.1657 27.3697
  A 7.37 6.91 90.5 0 0 218.1397 20.0603
  A 7.37 6.91 90.5 0 0 211.2943 12.6303
  A 7.37 6.91 90.5 0 0 204.3203 19.9397
  A 7.37 6.91 90.5 0 0 211.1657 27.3697"
/>
<path stroke="#808080" vector-effect="non-scaling-stroke" d="
  M 222.98 18.23
  A 0.24 0.24 0.0 0 1 223.42 18.14
  L 229.56 28.87
  A 1.10 1.10 0.0 0 0 231.57 28.65
  C 232.81 24.58 232.43 20.35 233.79 16.38
  Q 234.17 15.25 232.99 15.26
  L 232.26 15.26
  Q 231.04 15.27 230.91 16.49
  L 230.19 23.51
  A 0.46 0.46 0.0 0 1 229.34 23.70
  L 223.61 13.86
  A 1.22 1.22 0.0 0 0 221.36 14.27
  L 219.27 26.55
  Q 219.10 27.53 220.08 27.68
  L 220.65 27.77
  Q 221.72 27.94 221.86 26.87
  L 222.98 18.23"
/>
<path stroke="#808080" vector-effect="non-scaling-stroke" d="
  M 167.21 15.16
  L 168.72 27.45
  A 0.89 0.89 0.0 0 0 169.71 28.23
  L 174.45 27.64
  A 6.76 6.67 -7.0 0 0 180.34 20.20
  L 180.24 19.39
  A 6.76 6.67 -7.0 0 0 172.72 13.59
  L 167.99 14.17
  A 0.89 0.89 0.0 0 0 167.21 15.16"
/>
<path stroke="#808080" vector-effect="non-scaling-stroke" d="
  M 158.19 26.88
  L 162.46 26.41
  Q 163.04 26.34 163.38 26.82
  L 164.62 28.56
  A 1.55 1.55 0.0 0 0 166.48 29.09
  L 166.79 28.96
  A 0.76 0.75 -27.0 0 0 167.15 27.88
  L 159.97 16.07
  A 1.42 1.42 0.0 0 0 157.65 15.92
  Q 156.44 17.44 156.15 19.69
  C 155.71 23.16 154.69 26.40 154.57 29.93
  Q 154.53 30.86 155.46 30.79
  L 155.88 30.77
  Q 156.96 30.69 157.13 29.62
  L 157.47 27.56
  Q 157.57 26.95 158.19 26.88"
/>
<path stroke="#808080" vector-effect="non-scaling-stroke" d="
  M 242.96 28.66
  L 243.39 30.85
  A 1.00 0.99 3.6 0 0 244.07 31.61
  L 245.89 32.15
  Q 246.65 32.38 246.37 31.64
  C 245.20 28.52 245.71 25.43 244.90 22.26
  Q 244.38 20.26 244.02 18.22
  C 243.77 16.79 242.68 16.32 241.37 17.23
  A 2.34 2.19 -87.5 0 0 240.91 17.68
  Q 237.01 22.85 233.65 28.39
  A 0.85 0.84 31.2 0 0 233.94 29.56
  L 234.18 29.71
  Q 235.25 30.36 236.01 29.36
  L 237.25 27.70
  A 0.72 0.72 0.0 0 1 237.94 27.42
  L 242.34 28.06
  Q 242.86 28.14 242.96 28.66"
/>
<path stroke="#808080" vector-effect="non-scaling-stroke" d="
  M 145.85 27.82
  C 148.70 26.99 149.61 28.64 151.02 30.58
  Q 151.75 31.58 152.92 31.15
  L 153.23 31.03
  A 0.81 0.81 0.0 0 0 153.58 29.76
  L 151.06 26.68
  Q 150.68 26.22 150.99 25.70
  C 152.67 22.84 151.99 19.38 148.79 18.34
  C 146.77 17.67 144.00 18.83 141.87 19.37
  A 1.75 1.74 75.0 0 0 140.62 21.54
  L 143.71 32.51
  Q 143.88 33.15 144.54 33.07
  L 145.27 32.99
  Q 146.19 32.88 146.03 31.97
  L 145.40 28.55
  Q 145.29 27.98 145.85 27.82"
/>
<path stroke="#808080" vector-effect="non-scaling-stroke" d="
  M 250.86 31.31
  A 0.41 0.41 0.0 0 1 250.60 30.80
  L 253.80 19.63
  A 0.41 0.41 0.0 0 0 253.34 19.11
  L 251.67 19.35
  A 0.41 0.41 0.0 0 0 251.33 19.64
  L 247.49 32.07
  A 0.41 0.41 0.0 0 0 247.77 32.59
  L 256.00 35.05
  A 0.41 0.41 0.0 0 0 256.50 34.78
  L 256.84 33.75
  A 0.41 0.41 0.0 0 0 256.58 33.24
  L 250.86 31.31"
/>
<path stroke="#808080" vector-effect="non-scaling-stroke" d="
  M 133.05 25.53
  L 136.14 34.68
  Q 136.53 35.84 137.76 35.76
  L 138.29 35.72
  A 0.76 0.75 -11.9 0 0 138.95 34.71
  L 135.70 25.49
  A 1.36 1.36 0.0 0 1 136.62 23.72
  Q 138.11 23.30 138.56 21.88
  A 0.62 0.62 0.0 0 0 137.77 21.11
  Q 133.98 22.42 130.45 23.72
  Q 129.17 24.20 129.04 24.61
  Q 128.53 26.34 130.49 25.71
  L 132.27 25.14
  Q 132.86 24.95 133.05 25.53"
/>
<path stroke="#808080" vector-effect="non-scaling-stroke" d="
  M 177.60 29.72
  C 97.89 38.77 34.92 101.27 23.92 180.26
  Q 23.68 181.96 23.40 186.27
  C 23.15 190.09 22.30 193.55 22.30 197.50
  Q 22.26 281.54 22.27 365.72
  A 0.51 0.51 0.0 0 0 22.78 366.23
  L 373.01 366.23
  A 0.56 0.56 0.0 0 0 373.57 365.67
  Q 373.68 286.18 373.60 206.65
  C 373.51 117.87 312.13 45.00 224.75 30.51
  C 223.21 30.25 221.41 30.36 219.76 30.04
  C 214.53 29.03 208.73 29.27 204.10 28.80
  C 197.68 28.16 192.71 28.98 186.93 29.18
  Q 180.37 29.41 177.60 29.72"
/>
<path stroke="#808080" vector-effect="non-scaling-stroke" d="
  M 274.56 39.48
  L 278.98 41.60
  Q 279.48 41.83 279.48 42.38
  L 279.46 44.59
  A 1.07 1.07 0.0 0 0 280.24 45.63
  L 280.72 45.77
  Q 281.72 46.06 281.80 45.02
  L 282.86 31.69
  Q 282.89 31.28 282.60 31.00
  Q 280.98 29.44 279.65 30.64
  Q 274.65 35.18 269.89 39.53
  Q 269.29 40.09 269.95 40.57
  L 270.74 41.16
  A 1.02 1.01 42.0 0 0 272.02 41.10
  L 273.68 39.60
  Q 274.07 39.25 274.56 39.48"
/>
<path stroke="#808080" vector-effect="non-scaling-stroke" d="
  M 292.69 45.89
  Q 297.60 44.84 297.00 39.84
  Q 296.94 39.32 296.56 38.96
  Q 293.56 36.17 289.73 34.67
  Q 289.24 34.48 288.99 34.94
  L 283.00 45.89
  Q 282.58 46.66 283.37 47.05
  L 283.62 47.17
  A 1.34 1.34 0.0 0 0 285.39 46.61
  L 286.82 44.02
  Q 287.18 43.36 287.82 43.76
  L 289.31 44.71
  A 0.70 0.68 -73.2 0 1 289.63 45.33
  L 289.48 49.24
  Q 289.43 50.53 290.56 51.17
  L 291.25 51.56
  Q 292.22 52.11 292.21 51.00
  L 292.17 46.55
  Q 292.17 46.01 292.69 45.89"
/>
<path stroke="#808080" vector-effect="non-scaling-stroke" d="
  M 111.30 45.00
  A 0.45 0.45 0.0 0 1 110.68 44.82
  L 105.19 34.69
  A 0.45 0.45 0.0 0 0 104.50 34.57
  L 103.43 35.51
  A 0.45 0.45 0.0 0 0 103.33 36.05
  L 109.36 47.80
  A 0.45 0.45 0.0 0 0 109.97 47.99
  L 117.75 43.80
  A 0.45 0.45 0.0 0 0 117.89 43.13
  L 117.08 42.08
  A 0.45 0.45 0.0 0 0 116.50 41.97
  L 111.30 45.00"
/>
<path stroke="#808080" vector-effect="non-scaling-stroke" d="
  M 94.63 54.55
  Q 94.22 54.23 92.21 53.26
  A 0.88 0.87 13.2 0 1 91.73 52.50
  C 91.72 51.04 92.02 49.67 91.28 48.42
  C 88.66 44.03 82.78 48.08 80.43 50.89
  Q 80.13 51.25 80.41 51.63
  L 88.04 61.87
  A 0.76 0.75 -39.7 0 0 89.16 61.97
  L 89.43 61.72
  A 1.36 1.35 51.1 0 0 89.61 59.95
  L 87.76 57.36
  A 0.86 0.85 -44.1 0 1 87.78 56.33
  C 89.60 54.05 92.45 56.52 94.39 57.24
  A 0.93 0.92 -50.9 0 0 95.21 57.15
  L 98.44 55.10
  A 1.01 1.01 0.0 0 0 98.87 54.54
  Q 99.35 53.13 98.74 51.77
  Q 98.53 51.30 98.97 51.01
  L 103.30 48.19
  A 0.51 0.51 0.0 0 1 104.00 48.33
  Q 105.56 50.60 108.04 49.16
  A 0.52 0.51 -41.7 0 0 108.09 48.31
  L 97.01 39.77
  Q 96.57 39.43 96.02 39.56
  C 92.63 40.36 95.12 45.42 95.28 47.75
  Q 95.48 50.76 96.41 53.25
  Q 97.84 57.07 94.63 54.55"
/>
<path stroke="#808080" vector-effect="non-scaling-stroke" d="
  M 304.72 46.21
  L 306.56 47.32
  Q 307.38 47.82 308.06 47.15
  L 308.27 46.95
  A 0.67 0.67 0.0 0 0 308.17 45.90
  L 300.36 40.83
  Q 299.81 40.47 299.52 41.06
  L 299.13 41.90
  Q 298.80 42.59 299.52 42.83
  Q 300.59 43.20 301.47 43.92
  A 0.96 0.96 0.0 0 1 301.64 45.21
  L 296.15 52.97
  Q 295.39 54.06 296.35 54.97
  L 296.79 55.40
  A 0.87 0.86 37.7 0 0 298.12 55.23
  L 303.62 46.47
  Q 304.04 45.79 304.72 46.21"
/>
<path stroke="#808080" vector-effect="non-scaling-stroke" d="
  M 307.16 55.03
  A 0.44 0.44 0.0 0 1 307.78 54.95
  L 312.37 58.48
  A 0.44 0.44 0.0 0 0 312.98 58.40
  L 313.77 57.43
  A 0.44 0.44 0.0 0 0 313.69 56.80
  L 308.92 53.24
  A 0.44 0.44 0.0 0 1 308.83 52.63
  L 310.44 50.37
  A 0.44 0.44 0.0 0 1 311.06 50.27
  L 316.29 54.16
  A 0.44 0.44 0.0 0 0 316.98 53.92
  L 317.32 52.69
  A 0.44 0.44 0.0 0 0 317.17 52.22
  L 310.59 47.16
  A 0.44 0.44 0.0 0 0 309.97 47.24
  L 301.97 57.87
  A 0.44 0.44 0.0 0 0 302.06 58.48
  L 308.98 63.61
  A 0.44 0.44 0.0 0 0 309.61 63.50
  L 310.29 62.46
  A 0.44 0.44 0.0 0 0 310.17 61.86
  L 305.14 58.36
  A 0.44 0.44 0.0 0 1 305.05 57.72
  L 307.16 55.03"
/>
<path stroke="#808080" vector-effect="non-scaling-stroke" d="
  M 81.75 64.94
  L 80.10 66.47
  Q 78.51 67.94 77.09 66.31
  L 71.02 59.36
  Q 70.35 58.61 69.60 59.27
  L 69.25 59.58
  A 0.86 0.86 0.0 0 0 69.14 60.75
  Q 72.26 64.74 75.86 68.44
  C 78.64 71.31 82.06 68.06 84.16 65.87
  Q 86.46 63.48 84.37 60.96
  Q 81.24 57.18 77.76 53.26
  A 0.83 0.83 0.0 0 0 76.36 53.54
  L 76.22 53.97
  A 1.57 1.57 0.0 0 0 76.50 55.49
  L 81.94 61.95
  Q 83.27 63.54 81.75 64.94"
/>
<path stroke="#808080" vector-effect="non-scaling-stroke" d="
  M 317.33 64.28
  A 1.59 1.58 5.3 0 1 315.27 65.99
  Q 313.88 65.55 312.73 64.56
  A 0.75 0.74 -57.0 0 0 311.57 64.81
  L 311.32 65.33
  A 1.13 1.13 0.0 0 0 311.60 66.66
  C 316.41 70.83 321.99 67.23 318.60 60.87
  A 0.99 0.99 0.0 0 1 318.60 59.95
  C 319.07 59.04 320.09 58.75 320.98 59.33
  Q 321.94 59.95 322.44 61.17
  A 0.83 0.82 -21.5 0 0 323.50 61.62
  L 323.87 61.47
  A 1.24 1.23 67.2 0 0 324.55 59.80
  C 322.64 55.64 316.59 54.97 316.05 60.42
  Q 316.01 60.91 316.27 61.33
  Q 317.13 62.66 317.33 64.28"
/>
<path stroke="#808080" vector-effect="non-scaling-stroke" d="
  M 63.99 67.75
  A 0.34 0.34 0.0 0 1 64.46 67.77
  L 72.25 76.03
  A 0.34 0.34 0.0 0 0 72.75 76.02
  L 74.19 74.41
  A 0.34 0.34 0.0 0 0 74.18 73.94
  L 66.20 66.06
  A 0.34 0.34 0.0 0 1 66.18 65.60
  L 68.81 62.53
  A 0.34 0.34 0.0 0 0 68.74 62.02
  L 67.87 61.46
  A 0.34 0.34 0.0 0 0 67.45 61.51
  L 59.97 68.78
  A 0.34 0.34 0.0 0 0 59.98 69.27
  L 60.78 70.04
  A 0.34 0.34 0.0 0 0 61.23 70.06
  L 63.99 67.75"
/>
<path stroke="#808080" vector-effect="non-scaling-stroke" d="
  M 322.16 71.61
  L 325.40 74.76
  A 0.81 0.81 0.0 0 1 325.57 75.68
  L 324.75 77.48
  A 1.28 1.28 0.0 0 0 325.05 78.96
  L 325.43 79.32
  A 0.86 0.86 0.0 0 0 326.80 79.03
  L 332.02 66.96
  A 1.76 1.76 0.0 0 0 329.69 64.66
  L 318.60 69.60
  Q 314.97 71.22 318.91 72.08
  Q 319.71 72.26 321.14 71.47
  Q 321.70 71.16 322.16 71.61"
/>
<path stroke="#808080" vector-effect="non-scaling-stroke" d="
  M 337.44 85.33
  C 337.49 82.67 338.49 80.22 338.64 77.50
  C 338.71 76.08 339.92 73.18 338.59 72.14
  A 0.80 0.79 -46.5 0 0 337.57 72.17
  L 327.87 80.75
  A 0.71 0.71 0.0 0 0 327.97 81.89
  L 328.23 82.04
  A 1.33 1.32 -50.0 0 0 329.81 81.90
  L 335.50 76.79
  Q 336.02 76.33 336.12 77.01
  C 336.48 79.30 335.51 81.46 335.26 83.14
  Q 334.83 85.93 334.64 88.75
  Q 334.54 90.20 335.85 90.12
  A 0.51 0.51 0.0 0 0 336.15 90.00
  L 345.65 81.66
  Q 346.23 81.16 345.71 80.59
  L 345.29 80.14
  Q 344.67 79.47 344.01 80.09
  L 338.11 85.63
  A 0.40 0.40 0.0 0 1 337.44 85.33"
/>
<path stroke="#808080" vector-effect="non-scaling-stroke" d="
  M 64.91 80.63
  Q 66.08 80.73 67.25 80.81
  Q 69.02 80.93 68.92 79.30
  A 0.62 0.62 0.0 0 0 68.50 78.76
  Q 62.86 76.93 57.19 74.63
  Q 55.08 73.78 54.06 75.23
  A 1.66 1.66 0.0 0 0 53.93 76.91
  L 59.77 88.56
  A 0.90 0.90 0.0 0 0 60.88 89.00
  Q 61.95 88.61 61.50 86.99
  Q 61.23 86.04 61.01 84.99
  Q 60.88 84.42 61.28 83.99
  L 64.10 80.94
  Q 64.43 80.58 64.91 80.63"
/>
<path stroke="#808080" vector-effect="non-scaling-stroke" d="
  M 54.85 88.81
  A 0.50 0.50 0.0 0 1 54.55 89.71
  L 44.28 89.69
  Q 38.71 89.68 43.14 93.07
  L 51.65 99.57
  Q 52.39 100.13 52.93 99.37
  L 53.20 98.99
  A 0.90 0.90 0.0 0 0 52.99 97.74
  L 46.67 93.10
  Q 45.20 92.02 47.02 92.03
  Q 52.08 92.06 57.92 91.52
  Q 59.05 91.41 59.32 90.96
  Q 59.94 89.94 59.15 89.34
  L 49.44 82.05
  A 1.11 1.10 44.0 0 0 48.08 82.07
  L 47.85 82.26
  Q 46.93 83.00 47.88 83.69
  L 54.85 88.81"
/>
<path stroke="#808080" vector-effect="non-scaling-stroke" d="
  M 344.03 97.32
  L 342.75 99.56
  Q 342.47 100.05 342.89 100.43
  L 343.89 101.36
  A 0.45 0.45 0.0 0 0 344.58 101.27
  L 351.93 89.99
  A 1.83 1.83 0.0 0 0 349.89 87.23
  L 336.71 91.01
  Q 335.83 91.26 336.48 91.90
  L 337.69 93.09
  Q 338.16 93.55 338.70 93.15
  L 339.93 92.24
  A 0.64 0.64 0.0 0 1 340.82 92.36
  L 343.96 96.35
  Q 344.32 96.81 344.03 97.32"
/>
<path stroke="#808080" vector-effect="non-scaling-stroke" d="
  M 348.25 104.60
  A 0.55 0.55 0.0 0 1 348.41 103.81
  L 357.61 98.06
  A 0.55 0.55 0.0 0 0 357.82 97.38
  L 357.29 96.09
  A 0.55 0.55 0.0 0 0 356.50 95.83
  L 345.19 102.75
  A 0.55 0.55 0.0 0 0 345.02 103.51
  L 349.52 110.69
  A 0.55 0.55 0.0 0 0 350.29 110.86
  L 351.46 110.07
  A 0.55 0.55 0.0 0 0 351.60 109.30
  L 348.25 104.60"
/>
<path stroke="#808080" vector-effect="non-scaling-stroke" d="
  M 95.59 400.84
  L 91.93 401.17
  A 0.38 0.38 0.0 0 0 91.61 401.44
  L 91.52 401.80
  Q 91.36 402.45 92.02 402.45
  L 104.45 402.39
  A 0.49 0.49 0.0 0 0 104.94 401.89
  L 104.94 401.48
  A 0.28 0.28 0.0 0 0 104.64 401.20
  Q 101.94 401.35 101.08 399.68
  Q 94.40 386.67 87.60 373.78
  A 0.90 0.89 -45.3 0 0 86.01 373.79
  Q 79.54 386.37 72.65 398.96
  C 71.68 400.73 70.51 401.23 68.59 401.23
  Q 68.02 401.23 67.99 401.79
  L 67.98 402.08
  A 0.30 0.29 -88.2 0 0 68.27 402.40
  L 79.21 402.38
  A 0.48 0.48 0.0 0 0 79.69 401.90
  L 79.70 401.48
  Q 79.70 401.24 79.46 401.21
  L 75.98 400.87
  A 0.80 0.80 0.0 0 1 75.33 399.74
  L 78.09 393.80
  A 1.16 1.16 0.0 0 1 79.12 393.14
  L 92.15 393.07
  A 0.77 0.77 0.0 0 1 92.84 393.50
  L 96.04 400.06
  A 0.55 0.54 -15.5 0 1 95.59 400.84"
/>
<path stroke="#808080" vector-effect="non-scaling-stroke" d="
  M 241.16 375.83
  L 245.00 375.32
  Q 245.09 375.31 245.08 375.22
  L 245.06 374.88
  A 0.36 0.36 0.0 0 0 244.70 374.54
  Q 239.10 374.52 233.50 374.76
  Q 233.20 374.77 233.09 375.01
  A 0.23 0.23 0.0 0 0 233.27 375.34
  C 235.06 375.54 236.02 376.25 236.52 378.06
  Q 239.77 389.89 243.10 401.80
  A 1.44 1.43 72.9 0 0 244.93 402.77
  Q 245.74 402.51 246.06 401.81
  Q 250.83 391.45 256.02 381.36
  A 0.34 0.34 0.0 0 1 256.64 381.38
  Q 260.84 391.01 265.06 400.66
  Q 265.61 401.92 266.15 402.46
  A 1.55 1.55 0.0 0 0 268.72 401.84
  Q 272.71 389.28 277.38 377.53
  Q 278.20 375.47 280.52 375.49
  Q 280.65 375.49 280.65 375.37
  L 280.63 375.02
  Q 280.62 374.62 280.23 374.62
  L 271.15 374.60
  A 0.44 0.44 0.0 0 0 270.71 375.04
  L 270.72 375.41
  Q 270.72 375.59 270.91 375.58
  Q 272.84 375.51 274.04 375.90
  Q 275.19 376.28 274.79 377.41
  L 268.51 395.53
  A 0.53 0.53 0.0 0 1 267.52 395.56
  L 258.32 373.95
  A 0.76 0.76 0.0 0 0 256.93 373.92
  L 246.73 395.13
  Q 246.08 396.47 245.69 395.03
  L 240.66 376.59
  A 0.61 0.61 0.0 0 1 241.16 375.83"
/>
<path stroke="#808080" vector-effect="non-scaling-stroke" d="
  M 33.60 379.78
  A 0.31 0.30 -67.5 0 1 34.12 379.56
  Q 44.42 390.20 54.79 400.32
  C 56.69 402.18 58.40 402.88 60.94 402.75
  A 0.35 0.35 0.0 0 0 61.28 402.38
  C 60.94 394.13 61.27 385.96 61.04 377.78
  C 60.94 374.56 63.88 376.32 65.39 375.26
  Q 66.19 374.69 65.21 374.68
  L 54.30 374.52
  Q 53.87 374.51 53.86 374.95
  L 53.86 375.30
  A 0.28 0.28 0.0 0 0 54.11 375.59
  L 57.92 376.05
  A 0.95 0.94 -86.6 0 1 58.75 376.99
  L 58.77 397.01
  A 0.53 0.53 0.0 0 1 57.87 397.38
  L 36.01 375.23
  A 2.45 2.45 0.0 0 0 34.24 374.50
  L 26.58 374.58
  Q 26.24 374.58 26.28 374.92
  L 26.32 375.21
  Q 26.34 375.42 26.55 375.45
  L 29.74 375.90
  A 1.48 1.46 4.1 0 1 31.01 377.35
  Q 31.02 387.99 31.06 398.55
  Q 31.07 400.53 29.96 400.85
  Q 28.90 401.16 26.84 401.09
  A 0.69 0.68 2.1 0 0 26.13 401.74
  L 26.11 402.03
  A 0.42 0.42 0.0 0 0 26.53 402.47
  L 37.81 402.42
  A 0.62 0.62 0.0 0 0 38.40 401.99
  L 38.48 401.72
  A 0.28 0.27 12.9 0 0 38.26 401.37
  L 34.19 400.72
  A 0.78 0.78 0.0 0 1 33.53 399.95
  L 33.60 379.78"
/>
<path stroke="#808080" vector-effect="non-scaling-stroke" d="
  M 132.29 376.10
  Q 132.97 376.11 133.02 376.79
  L 133.23 380.21
  Q 133.26 380.64 133.68 380.54
  L 133.98 380.46
  A 1.14 1.13 -2.7 0 0 134.84 379.52
  L 135.43 375.20
  A 0.61 0.60 4.2 0 0 134.83 374.52
  L 107.23 374.51
  Q 106.73 374.51 106.73 375.02
  L 106.74 379.99
  Q 106.74 380.51 107.27 380.52
  Q 108.07 380.55 108.28 379.78
  Q 108.75 378.13 108.99 376.81
  A 0.97 0.96 -85.0 0 1 109.94 376.01
  L 117.74 375.96
  Q 118.45 375.95 118.49 376.66
  Q 119.20 388.41 118.29 400.14
  A 0.83 0.82 -0.8 0 1 117.55 400.90
  L 113.71 401.30
  A 0.27 0.26 -14.2 0 0 113.49 401.66
  L 113.62 401.96
  A 0.75 0.74 78.8 0 0 114.31 402.43
  L 127.77 402.45
  A 0.46 0.46 0.0 0 0 128.23 401.98
  L 128.22 401.65
  Q 128.22 401.12 127.69 401.09
  L 124.31 400.92
  A 1.11 1.11 0.0 0 1 123.25 399.81
  L 123.18 377.01
  Q 123.18 375.95 124.24 375.97
  L 132.29 376.10"
/>
<path stroke="#808080" vector-effect="non-scaling-stroke" d="
  M 151.70 401.43
  A 0.19 0.19 0.0 0 0 151.53 401.25
  L 147.12 400.90
  A 0.19 0.19 0.0 0 1 146.95 400.71
  L 146.88 375.98
  A 0.19 0.19 0.0 0 1 147.05 375.79
  L 151.41 375.39
  A 0.19 0.19 0.0 0 0 151.58 375.20
  L 151.59 374.83
  A 0.19 0.19 0.0 0 0 151.41 374.64
  L 137.71 374.62
  A 0.19 0.19 0.0 0 0 137.52 374.82
  L 137.55 375.32
  A 0.19 0.19 0.0 0 0 137.72 375.49
  L 141.92 375.87
  A 0.19 0.19 0.0 0 1 142.09 376.06
  L 142.02 400.68
  A 0.19 0.19 0.0 0 1 141.85 400.87
  L 137.40 401.27
  A 0.19 0.19 0.0 0 0 137.24 401.51
  L 137.44 402.32
  A 0.19 0.19 0.0 0 0 137.63 402.46
  L 151.54 402.41
  A 0.19 0.19 0.0 0 0 151.72 402.22
  L 151.70 401.43"
/>
<path stroke="#808080" vector-effect="non-scaling-stroke" d="
  M 162.83 375.80
  L 166.72 375.51
  Q 166.93 375.49 166.93 375.28
  L 166.94 374.89
  Q 166.94 374.65 166.71 374.65
  L 153.54 374.61
  Q 153.17 374.61 153.19 374.98
  L 153.22 375.30
  Q 153.24 375.56 153.49 375.51
  Q 156.71 374.92 157.86 377.36
  Q 163.62 389.58 169.53 401.73
  Q 170.19 403.10 171.53 402.88
  A 1.30 1.29 -81.1 0 0 172.50 402.17
  L 185.24 376.29
  Q 185.48 375.80 186.03 375.76
  Q 187.20 375.67 187.72 375.52
  Q 190.20 374.81 187.50 374.68
  Q 182.73 374.44 177.97 374.65
  Q 177.63 374.67 177.62 375.00
  L 177.61 375.28
  Q 177.60 375.45 177.77 375.47
  L 181.93 376.05
  A 0.51 0.50 -72.9 0 1 182.31 376.77
  L 173.04 396.36
  A 0.73 0.72 -44.9 0 1 171.73 396.36
  L 162.46 376.43
  Q 162.19 375.85 162.83 375.80"
/>
<path stroke="#808080" vector-effect="non-scaling-stroke" d="
  M 200.60 388.56
  L 210.07 388.71
  A 0.84 0.83 -11.9 0 1 210.81 389.18
  Q 211.41 390.37 211.32 391.72
  A 0.47 0.47 0.0 0 0 211.75 392.23
  L 212.13 392.27
  Q 212.86 392.35 212.88 391.61
  L 213.07 383.66
  A 0.50 0.50 0.0 0 0 212.32 383.21
  Q 211.31 383.79 211.40 385.09
  A 1.80 1.79 87.4 0 1 209.65 387.01
  L 200.40 387.21
  A 0.39 0.39 0.0 0 1 200.00 386.81
  L 200.10 376.67
  A 0.72 0.72 0.0 0 1 200.84 375.96
  L 213.17 376.24
  A 0.98 0.97 -0.9 0 1 214.13 377.16
  L 214.29 380.26
  Q 214.31 380.79 214.78 380.52
  Q 215.33 380.20 215.55 379.55
  Q 216.22 377.51 216.25 375.12
  A 0.56 0.55 -89.5 0 0 215.70 374.55
  L 191.25 374.53
  Q 188.63 374.53 191.07 375.57
  Q 192.08 376.00 193.98 375.85
  A 1.02 1.02 0.0 0 1 195.07 376.87
  L 195.10 399.84
  A 1.05 1.04 86.9 0 1 194.17 400.88
  L 191.06 401.23
  A 0.30 0.30 0.0 0 0 190.80 401.49
  L 190.75 401.96
  A 0.46 0.45 -87.7 0 0 191.21 402.46
  L 216.40 402.35
  Q 216.89 402.35 216.93 401.85
  L 217.34 396.78
  Q 217.38 396.18 216.79 396.21
  L 216.50 396.22
  Q 215.72 396.25 215.57 397.01
  L 215.06 399.50
  A 0.85 0.85 0.0 0 1 214.36 400.17
  Q 207.84 401.19 201.24 400.69
  A 1.21 1.20 1.8 0 1 200.12 399.50
  L 200.01 389.15
  Q 200.01 388.55 200.60 388.56"
/>
<path stroke="#808080" vector-effect="non-scaling-stroke" d="
  M 292.81 375.76
  L 296.80 375.50
  A 0.30 0.29 -80.7 0 0 297.06 375.31
  L 297.14 375.07
  Q 297.30 374.64 296.84 374.64
  L 283.30 374.64
  Q 282.91 374.64 282.90 375.03
  L 282.90 375.33
  Q 282.90 375.42 282.99 375.43
  L 286.41 375.73
  A 1.18 1.17 -87.3 0 1 287.47 376.90
  L 287.47 399.67
  A 1.26 1.26 0.0 0 1 286.26 400.93
  Q 284.72 400.98 283.11 401.41
  Q 282.76 401.50 282.74 401.83
  Q 282.71 402.39 283.26 402.39
  L 296.57 402.43
  A 0.56 0.56 0.0 0 0 297.13 401.80
  L 297.08 401.48
  A 0.37 0.37 0.0 0 0 296.74 401.16
  L 293.11 400.92
  A 0.94 0.93 -88.4 0 1 292.23 399.98
  L 292.16 376.46
  A 0.69 0.69 0.0 0 1 292.81 375.76"
/>
<path stroke="#808080" vector-effect="non-scaling-stroke" d="
  M 306.56 379.61
  A 0.41 0.41 0.0 0 1 307.27 379.33
  Q 317.49 389.85 327.83 400.17
  Q 330.62 402.96 333.91 402.64
  Q 334.46 402.59 334.42 402.03
  Q 333.51 388.45 334.15 377.99
  Q 334.36 374.58 338.31 375.72
  Q 338.48 375.77 338.54 375.60
  L 338.74 375.02
  Q 338.86 374.65 338.47 374.65
  L 327.14 374.59
  Q 326.78 374.59 326.78 374.95
  L 326.77 375.37
  Q 326.77 375.42 326.91 375.44
  L 330.60 375.99
  A 1.10 1.10 0.0 0 1 331.55 377.07
  L 331.84 396.89
  A 0.62 0.62 0.0 0 1 330.78 397.33
  L 308.88 375.12
  A 2.02 2.01 -22.8 0 0 307.43 374.53
  L 299.69 374.63
  Q 299.48 374.63 299.53 374.83
  L 299.66 375.35
  Q 299.69 375.49 299.83 375.48
  Q 301.92 375.42 303.76 376.34
  Q 304.32 376.62 304.32 377.25
  L 304.28 399.65
  Q 304.28 400.20 303.79 400.46
  Q 302.03 401.39 300.03 401.04
  A 0.41 0.40 -86.7 0 0 299.56 401.47
  L 299.58 401.82
  Q 299.61 402.43 300.22 402.43
  L 310.43 402.41
  Q 310.96 402.41 310.98 401.88
  L 310.99 401.51
  A 0.41 0.41 0.0 0 0 310.60 401.08
  L 308.00 400.97
  Q 307.45 400.95 307.33 400.41
  C 305.90 393.87 306.43 386.21 306.56 379.61"
/>
<path stroke="#808080" vector-effect="non-scaling-stroke" d="
  M 351.15 386.56
  L 351.28 376.59
  A 0.67 0.66 -88.7 0 1 351.96 375.93
  L 364.14 376.24
  A 0.83 0.82 -0.4 0 1 364.95 377.03
  Q 365.00 378.22 365.12 379.56
  Q 365.19 380.29 365.68 380.50
  Q 366.29 380.75 366.47 380.12
  L 367.84 375.27
  A 0.62 0.61 -82.4 0 0 367.25 374.49
  L 341.69 374.57
  Q 341.19 374.57 341.29 375.06
  L 341.35 375.40
  A 0.48 0.48 0.0 0 0 341.90 375.78
  Q 343.99 375.45 345.73 376.50
  Q 346.27 376.83 346.27 377.46
  L 346.26 399.30
  A 1.56 1.55 -4.8 0 1 344.96 400.83
  L 341.79 401.35
  Q 341.56 401.38 341.56 401.62
  L 341.55 401.97
  A 0.43 0.43 0.0 0 0 341.97 402.41
  L 367.22 402.46
  A 0.53 0.53 0.0 0 0 367.75 401.88
  Q 367.53 399.32 368.47 396.94
  Q 368.84 396.00 367.83 395.87
  L 367.48 395.83
  Q 366.67 395.72 366.56 396.53
  Q 366.35 398.12 365.61 399.54
  Q 365.34 400.05 364.78 400.15
  Q 358.68 401.27 352.50 400.63
  A 1.39 1.39 0.0 0 1 351.25 399.25
  L 351.20 389.42
  Q 351.20 388.53 352.09 388.54
  L 360.45 388.65
  A 1.16 1.11 -23.5 0 1 361.15 388.91
  Q 362.26 389.85 362.16 391.28
  Q 362.09 392.18 362.99 392.30
  L 363.30 392.34
  A 0.57 0.57 0.0 0 0 363.95 391.77
  L 363.96 383.99
  Q 363.96 383.35 363.33 383.33
  L 362.88 383.31
  Q 362.29 383.28 362.29 383.87
  C 362.29 388.52 354.95 387.32 351.70 387.15
  Q 351.14 387.12 351.15 386.56"
/>
<path stroke="#808080" vector-effect="non-scaling-stroke" d="
  M 210.8385 25.0146
  A 4.99 4.34 94.5 0 0 215.5566 20.3805
  A 4.99 4.34 94.5 0 0 211.6215 15.0654
  A 4.99 4.34 94.5 0 0 206.9034 19.6995
  A 4.99 4.34 94.5 0 0 210.8385 25.0146"
/>
<path stroke="#808080" vector-effect="non-scaling-stroke" d="
  M 169.80 17.47
  L 170.80 24.44
  A 1.55 1.55 0.0 0 0 172.56 25.75
  L 174.00 25.55
  A 4.53 4.53 0.0 0 0 177.84 20.42
  L 177.68 19.35
  A 4.53 4.53 0.0 0 0 172.55 15.51
  L 171.11 15.72
  A 1.55 1.55 0.0 0 0 169.80 17.47"
/>
<path stroke="#808080" vector-effect="non-scaling-stroke" d="
  M 158.11 24.26
  A 0.34 0.34 0.0 0 0 158.51 24.63
  L 161.38 24.08
  A 0.34 0.34 0.0 0 0 161.62 23.59
  L 159.30 19.24
  A 0.34 0.34 0.0 0 0 158.66 19.37
  L 158.11 24.26"
/>
<path stroke="#808080" vector-effect="non-scaling-stroke" d="
  M 238.93 24.43
  A 0.57 0.57 0.0 0 0 239.31 25.33
  L 242.21 25.78
  A 0.57 0.57 0.0 0 0 242.87 25.16
  L 242.45 21.32
  A 0.57 0.57 0.0 0 0 241.42 21.04
  L 238.93 24.43"
/>
<path stroke="#808080" vector-effect="non-scaling-stroke" d="
  M 143.39 22.55
  L 144.33 25.31
  A 1.20 1.20 0.0 0 0 145.86 26.06
  L 147.74 25.42
  A 2.59 2.57 -18.8 0 0 149.36 22.15
  L 149.31 21.98
  A 2.59 2.57 -18.8 0 0 146.03 20.39
  L 144.14 21.03
  A 1.20 1.20 0.0 0 0 143.39 22.55"
/>
<path stroke="#808080" vector-effect="non-scaling-stroke" d="
  M 183.50 35.71
  C 102.78 42.57 37.76 106.52 29.69 187.78
  Q 28.99 194.81 28.97 207.76
  Q 28.81 283.42 28.95 358.97
  A 0.54 0.54 0.0 0 0 29.49 359.51
  L 366.23 359.51
  A 0.28 0.27 0.0 0 0 366.51 359.24
  Q 366.51 278.65 366.54 198.00
  C 366.54 187.87 364.89 176.12 363.21 168.75
  C 344.34 86.05 269.44 28.41 183.50 35.71"
/>
<path stroke="#808080" vector-effect="non-scaling-stroke" d="
  M 275.92 37.14
  A 0.42 0.42 0.0 0 0 276.00 37.81
  L 278.82 39.40
  A 0.42 0.42 0.0 0 0 279.44 39.12
  L 280.57 33.81
  A 0.42 0.42 0.0 0 0 279.87 33.42
  L 275.92 37.14"
/>
<path stroke="#808080" vector-effect="non-scaling-stroke" d="
  M 290.03 38.20
  L 288.53 40.86
  A 1.08 1.08 0.0 0 0 288.94 42.34
  L 290.60 43.27
  A 2.78 2.54 29.3 0 0 294.27 42.41
  L 294.34 42.29
  A 2.78 2.54 29.3 0 0 293.15 38.71
  L 291.50 37.78
  A 1.08 1.08 0.0 0 0 290.03 38.20"
/>
<path stroke="#808080" vector-effect="non-scaling-stroke" d="
  M 110.72 156.37
  A 0.50 0.47 41.6 0 1 111.40 156.35
  L 136.61 178.14
  A 0.22 0.21 20.3 0 0 136.97 177.98
  Q 136.95 176.01 137.21 174.03
  Q 138.89 161.35 142.26 149.00
  A 1.08 1.08 0.0 0 0 141.95 147.91
  Q 132.94 139.68 123.56 131.42
  Q 121.74 129.81 119.25 129.99
  C 100.95 131.33 83.30 130.44 64.87 129.95
  Q 64.29 129.93 64.30 130.51
  L 64.38 136.96
  Q 64.39 137.51 64.94 137.49
  C 70.59 137.33 79.73 136.63 85.06 138.74
  C 94.31 142.39 95.31 147.03 95.36 156.30
  Q 95.64 205.28 95.20 254.25
  Q 95.10 264.30 93.80 274.24
  C 93.12 279.36 90.38 282.15 85.18 282.99
  C 78.73 284.03 72.30 283.78 64.85 283.70
  Q 64.32 283.69 64.32 284.22
  L 64.39 290.31
  Q 64.39 290.85 64.93 290.82
  C 87.39 289.70 110.01 290.22 132.50 290.23
  Q 137.62 290.23 141.57 291.00
  A 0.25 0.25 0.0 0 0 141.87 290.76
  L 142.05 284.00
  Q 142.05 283.74 141.79 283.71
  Q 132.76 282.93 123.59 282.45
  Q 122.54 282.39 121.27 281.97
  C 119.37 281.35 117.34 281.45 115.90 280.34
  C 113.10 278.19 112.20 272.57 111.93 269.30
  C 111.07 258.92 110.47 249.05 110.48 238.22
  Q 110.53 197.56 110.49 156.91
  Q 110.49 156.74 110.56 156.61
  Q 110.64 156.47 110.72 156.37"
/>
<path stroke="#808080" vector-effect="non-scaling-stroke" d="
  M 279.45 264.83
  A 0.36 0.36 0.0 0 1 278.87 265.11
  L 248.61 240.42
  Q 247.78 239.73 247.41 240.75
  Q 243.19 252.32 234.95 261.47
  A 0.98 0.98 0.0 0 0 235.05 262.88
  Q 248.53 274.01 261.61 284.42
  C 265.79 287.75 270.03 290.50 274.73 291.11
  Q 285.81 292.54 296.10 293.61
  Q 297.43 293.75 297.28 292.43
  C 295.45 276.55 294.58 260.21 294.55 244.18
  Q 294.45 188.49 294.57 173.50
  Q 294.74 152.42 295.76 145.74
  Q 296.49 140.92 301.24 139.16
  C 308.48 136.48 317.80 137.37 325.28 137.49
  Q 325.98 137.51 325.99 136.81
  L 326.07 130.71
  Q 326.08 130.00 325.37 130.00
  Q 319.89 129.98 318.25 130.06
  C 292.28 131.42 270.91 130.62 247.13 129.90
  A 0.58 0.57 -89.0 0 0 246.54 130.48
  L 246.55 136.97
  A 0.67 0.67 0.0 0 0 247.25 137.64
  C 251.88 137.49 255.92 137.53 260.87 138.25
  C 266.07 139.01 277.26 139.18 278.03 145.74
  C 278.83 152.71 279.45 161.66 279.46 169.78
  Q 279.56 217.35 279.45 264.83"
/>
<path stroke="#808080" vector-effect="non-scaling-stroke" d="
  M 184.99 253.63
  C 179.73 256.75 172.69 255.50 168.91 250.79
  C 159.20 238.64 156.39 219.27 155.82 204.00
  Q 155.05 183.33 157.15 162.77
  C 157.51 159.24 158.51 154.14 158.74 149.69
  Q 158.77 149.15 158.24 149.14
  L 149.24 148.94
  A 0.96 0.95 -80.9 0 0 148.30 149.63
  C 142.25 170.15 140.48 190.01 142.34 212.23
  C 143.80 229.66 151.42 259.66 171.92 264.44
  C 176.60 265.53 180.68 263.93 184.82 261.78
  Q 185.82 261.27 185.84 260.14
  L 185.95 254.19
  Q 185.97 253.06 184.99 253.63"
/>
<path stroke="#808080" vector-effect="non-scaling-stroke" d="
  M 222.82 263.10
  C 238.12 256.42 245.61 231.88 247.56 216.50
  C 250.42 193.96 248.23 171.91 242.19 150.06
  A 1.47 1.47 0.0 0 0 240.76 148.98
  L 231.99 149.08
  Q 231.55 149.09 231.52 149.53
  C 231.35 152.83 232.40 156.66 232.67 158.91
  Q 235.72 184.89 233.79 210.99
  C 232.90 223.00 226.77 263.86 205.60 253.90
  Q 204.70 253.47 204.69 254.48
  L 204.65 260.19
  Q 204.65 261.19 205.49 261.71
  Q 214.01 266.94 222.82 263.10"
/>
<path stroke="#808080" vector-effect="non-scaling-stroke" d="
  M 203.57 212.00
  L 203.61 234.94
  A 1.88 1.87 -69.7 0 0 204.26 236.36
  L 215.98 246.49
  A 0.94 0.94 0.0 0 0 217.33 246.37
  C 222.00 240.66 224.68 231.77 226.13 224.58
  C 226.43 223.09 226.98 221.76 225.63 220.62
  Q 194.17 194.00 163.07 166.91
  A 0.42 0.42 0.0 0 0 162.37 167.21
  L 161.26 198.09
  A 2.53 2.52 21.3 0 0 162.14 200.09
  L 186.73 221.29
  A 0.42 0.42 0.0 0 0 187.43 220.97
  L 187.42 212.15
  A 0.68 0.68 0.0 0 1 188.10 211.47
  L 203.00 211.44
  A 0.57 0.56 89.0 0 1 203.57 212.00"
/>
<path stroke="#808080" vector-effect="non-scaling-stroke" d="
  M 200.27 215.03
  A 0.52 0.52 0.0 0 0 199.75 214.51
  L 191.01 214.51
  A 0.52 0.52 0.0 0 0 190.49 215.03
  L 190.49 319.93
  A 0.52 0.52 0.0 0 0 191.01 320.45
  L 199.75 320.45
  A 0.52 0.52 0.0 0 0 200.27 319.93
  L 200.27 215.03"
/>
<path stroke="#808080" vector-effect="non-scaling-stroke" d="
  M 220.23 325.86
  A 0.61 0.61 0.0 0 0 219.62 325.25
  L 169.88 325.25
  A 0.61 0.61 0.0 0 0 169.27 325.86
  L 169.27 330.86
  A 0.61 0.61 0.0 0 0 169.88 331.47
  L 219.62 331.47
  A 0.61 0.61 0.0 0 0 220.23 330.86
  L 220.23 325.86"
/>
<path stroke="#808080" vector-effect="non-scaling-stroke" d="
  M 98.31 48.28
  A 0.40 0.40 0.0 0 0 98.92 48.47
  L 101.28 46.76
  A 0.40 0.40 0.0 0 0 101.29 46.12
  L 97.21 42.99
  A 0.40 0.40 0.0 0 0 96.59 43.44
  L 98.31 48.28"
/>
<path stroke="#808080" vector-effect="non-scaling-stroke" d="
  M 83.57 51.74
  L 85.60 54.49
  A 0.77 0.77 0.0 0 0 86.68 54.65
  L 88.28 53.47
  A 2.82 2.29 -36.4 0 0 89.19 49.96
  L 88.96 49.65
  A 2.82 2.29 -36.4 0 0 85.33 49.48
  L 83.73 50.66
  A 0.77 0.77 0.0 0 0 83.57 51.74"
/>
<path stroke="#808080" vector-effect="non-scaling-stroke" d="
  M 328.92 68.32
  A 0.42 0.42 0.0 0 0 328.35 67.77
  L 323.93 69.92
  A 0.42 0.42 0.0 0 0 323.82 70.61
  L 326.31 72.95
  A 0.42 0.42 0.0 0 0 326.99 72.81
  L 328.92 68.32"
/>
<path stroke="#808080" vector-effect="non-scaling-stroke" d="
  M 59.37 82.50
  A 0.31 0.31 0.0 0 0 59.88 82.56
  L 62.42 79.57
  A 0.31 0.31 0.0 0 0 62.28 79.08
  L 57.27 77.39
  A 0.31 0.31 0.0 0 0 56.89 77.83
  L 59.37 82.50"
/>
<path stroke="#808080" vector-effect="non-scaling-stroke" d="
  M 348.70 90.66
  A 0.30 0.30 0.0 0 0 348.38 90.20
  L 343.42 91.34
  A 0.30 0.30 0.0 0 0 343.24 91.80
  L 345.34 94.86
  A 0.30 0.30 0.0 0 0 345.84 94.86
  L 348.70 90.66"
/>
<path stroke="#808080" vector-effect="non-scaling-stroke" d="
  M 79.87 390.51
  A 0.35 0.35 0.0 0 0 80.18 391.02
  L 91.08 391.02
  A 0.35 0.35 0.0 0 0 91.39 390.51
  L 85.94 379.73
  A 0.35 0.35 0.0 0 0 85.32 379.73
  L 79.87 390.51"
/>
</g>
<path fill="#ffffff" d="
  M 0.00 0.00
  L 408.00 0.00
  L 408.00 408.00
  L 0.00 408.00
  L 0.00 0.00
  Z
  M 196.60 22.99
  C 193.84 25.40 190.20 24.66 189.57 20.80
  C 188.85 16.38 192.87 11.55 196.47 16.36
  A 0.67 0.67 0.0 0 0 197.65 16.12
  Q 198.31 13.50 196.24 12.91
  C 185.82 9.95 183.70 23.10 190.48 26.33
  C 191.94 27.02 197.65 27.01 198.17 24.45
  Q 198.36 23.50 197.45 22.92
  Q 197.00 22.64 196.60 22.99
  Z
  M 202.5419 13.3644
  A 0.77 0.77 0.0 0 0 201.7746 12.5918
  L 200.7946 12.5883
  A 0.77 0.77 0.0 0 0 200.0219 13.3556
  L 199.9781 25.9156
  A 0.77 0.77 0.0 0 0 200.7454 26.6882
  L 201.7254 26.6917
  A 0.77 0.77 0.0 0 0 202.4981 25.9244
  L 202.5419 13.3644
  Z
  M 184.7648 13.4115
  A 0.59 0.59 0.0 0 0 184.1556 12.8413
  L 182.7963 12.8864
  A 0.59 0.59 0.0 0 0 182.2262 13.4957
  L 182.6552 26.4285
  A 0.59 0.59 0.0 0 0 183.2644 26.9987
  L 184.6237 26.9536
  A 0.59 0.59 0.0 0 0 185.1938 26.3443
  L 184.7648 13.4115
  Z
  M 211.1657 27.3697
  A 7.37 6.91 90.5 0 0 218.1397 20.0603
  A 7.37 6.91 90.5 0 0 211.2943 12.6303
  A 7.37 6.91 90.5 0 0 204.3203 19.9397
  A 7.37 6.91 90.5 0 0 211.1657 27.3697
  Z
  M 222.98 18.23
  A 0.24 0.24 0.0 0 1 223.42 18.14
  L 229.56 28.87
  A 1.10 1.10 0.0 0 0 231.57 28.65
  C 232.81 24.58 232.43 20.35 233.79 16.38
  Q 234.17 15.25 232.99 15.26
  L 232.26 15.26
  Q 231.04 15.27 230.91 16.49
  L 230.19 23.51
  A 0.46 0.46 0.0 0 1 229.34 23.70
  L 223.61 13.86
  A 1.22 1.22 0.0 0 0 221.36 14.27
  L 219.27 26.55
  Q 219.10 27.53 220.08 27.68
  L 220.65 27.77
  Q 221.72 27.94 221.86 26.87
  L 222.98 18.23
  Z
  M 167.21 15.16
  L 168.72 27.45
  A 0.89 0.89 0.0 0 0 169.71 28.23
  L 174.45 27.64
  A 6.76 6.67 -7.0 0 0 180.34 20.20
  L 180.24 19.39
  A 6.76 6.67 -7.0 0 0 172.72 13.59
  L 167.99 14.17
  A 0.89 0.89 0.0 0 0 167.21 15.16
  Z
  M 158.19 26.88
  L 162.46 26.41
  Q 163.04 26.34 163.38 26.82
  L 164.62 28.56
  A 1.55 1.55 0.0 0 0 166.48 29.09
  L 166.79 28.96
  A 0.76 0.75 -27.0 0 0 167.15 27.88
  L 159.97 16.07
  A 1.42 1.42 0.0 0 0 157.65 15.92
  Q 156.44 17.44 156.15 19.69
  C 155.71 23.16 154.69 26.40 154.57 29.93
  Q 154.53 30.86 155.46 30.79
  L 155.88 30.77
  Q 156.96 30.69 157.13 29.62
  L 157.47 27.56
  Q 157.57 26.95 158.19 26.88
  Z
  M 242.96 28.66
  L 243.39 30.85
  A 1.00 0.99 3.6 0 0 244.07 31.61
  L 245.89 32.15
  Q 246.65 32.38 246.37 31.64
  C 245.20 28.52 245.71 25.43 244.90 22.26
  Q 244.38 20.26 244.02 18.22
  C 243.77 16.79 242.68 16.32 241.37 17.23
  A 2.34 2.19 -87.5 0 0 240.91 17.68
  Q 237.01 22.85 233.65 28.39
  A 0.85 0.84 31.2 0 0 233.94 29.56
  L 234.18 29.71
  Q 235.25 30.36 236.01 29.36
  L 237.25 27.70
  A 0.72 0.72 0.0 0 1 237.94 27.42
  L 242.34 28.06
  Q 242.86 28.14 242.96 28.66
  Z
  M 145.85 27.82
  C 148.70 26.99 149.61 28.64 151.02 30.58
  Q 151.75 31.58 152.92 31.15
  L 153.23 31.03
  A 0.81 0.81 0.0 0 0 153.58 29.76
  L 151.06 26.68
  Q 150.68 26.22 150.99 25.70
  C 152.67 22.84 151.99 19.38 148.79 18.34
  C 146.77 17.67 144.00 18.83 141.87 19.37
  A 1.75 1.74 75.0 0 0 140.62 21.54
  L 143.71 32.51
  Q 143.88 33.15 144.54 33.07
  L 145.27 32.99
  Q 146.19 32.88 146.03 31.97
  L 145.40 28.55
  Q 145.29 27.98 145.85 27.82
  Z
  M 250.86 31.31
  A 0.41 0.41 0.0 0 1 250.60 30.80
  L 253.80 19.63
  A 0.41 0.41 0.0 0 0 253.34 19.11
  L 251.67 19.35
  A 0.41 0.41 0.0 0 0 251.33 19.64
  L 247.49 32.07
  A 0.41 0.41 0.0 0 0 247.77 32.59
  L 256.00 35.05
  A 0.41 0.41 0.0 0 0 256.50 34.78
  L 256.84 33.75
  A 0.41 0.41 0.0 0 0 256.58 33.24
  L 250.86 31.31
  Z
  M 133.05 25.53
  L 136.14 34.68
  Q 136.53 35.84 137.76 35.76
  L 138.29 35.72
  A 0.76 0.75 -11.9 0 0 138.95 34.71
  L 135.70 25.49
  A 1.36 1.36 0.0 0 1 136.62 23.72
  Q 138.11 23.30 138.56 21.88
  A 0.62 0.62 0.0 0 0 137.77 21.11
  Q 133.98 22.42 130.45 23.72
  Q 129.17 24.20 129.04 24.61
  Q 128.53 26.34 130.49 25.71
  L 132.27 25.14
  Q 132.86 24.95 133.05 25.53
  Z
  M 177.60 29.72
  C 97.89 38.77 34.92 101.27 23.92 180.26
  Q 23.68 181.96 23.40 186.27
  C 23.15 190.09 22.30 193.55 22.30 197.50
  Q 22.26 281.54 22.27 365.72
  A 0.51 0.51 0.0 0 0 22.78 366.23
  L 373.01 366.23
  A 0.56 0.56 0.0 0 0 373.57 365.67
  Q 373.68 286.18 373.60 206.65
  C 373.51 117.87 312.13 45.00 224.75 30.51
  C 223.21 30.25 221.41 30.36 219.76 30.04
  C 214.53 29.03 208.73 29.27 204.10 28.80
  C 197.68 28.16 192.71 28.98 186.93 29.18
  Q 180.37 29.41 177.60 29.72
  Z
  M 274.56 39.48
  L 278.98 41.60
  Q 279.48 41.83 279.48 42.38
  L 279.46 44.59
  A 1.07 1.07 0.0 0 0 280.24 45.63
  L 280.72 45.77
  Q 281.72 46.06 281.80 45.02
  L 282.86 31.69
  Q 282.89 31.28 282.60 31.00
  Q 280.98 29.44 279.65 30.64
  Q 274.65 35.18 269.89 39.53
  Q 269.29 40.09 269.95 40.57
  L 270.74 41.16
  A 1.02 1.01 42.0 0 0 272.02 41.10
  L 273.68 39.60
  Q 274.07 39.25 274.56 39.48
  Z
  M 292.69 45.89
  Q 297.60 44.84 297.00 39.84
  Q 296.94 39.32 296.56 38.96
  Q 293.56 36.17 289.73 34.67
  Q 289.24 34.48 288.99 34.94
  L 283.00 45.89
  Q 282.58 46.66 283.37 47.05
  L 283.62 47.17
  A 1.34 1.34 0.0 0 0 285.39 46.61
  L 286.82 44.02
  Q 287.18 43.36 287.82 43.76
  L 289.31 44.71
  A 0.70 0.68 -73.2 0 1 289.63 45.33
  L 289.48 49.24
  Q 289.43 50.53 290.56 51.17
  L 291.25 51.56
  Q 292.22 52.11 292.21 51.00
  L 292.17 46.55
  Q 292.17 46.01 292.69 45.89
  Z
  M 111.30 45.00
  A 0.45 0.45 0.0 0 1 110.68 44.82
  L 105.19 34.69
  A 0.45 0.45 0.0 0 0 104.50 34.57
  L 103.43 35.51
  A 0.45 0.45 0.0 0 0 103.33 36.05
  L 109.36 47.80
  A 0.45 0.45 0.0 0 0 109.97 47.99
  L 117.75 43.80
  A 0.45 0.45 0.0 0 0 117.89 43.13
  L 117.08 42.08
  A 0.45 0.45 0.0 0 0 116.50 41.97
  L 111.30 45.00
  Z
  M 94.63 54.55
  Q 94.22 54.23 92.21 53.26
  A 0.88 0.87 13.2 0 1 91.73 52.50
  C 91.72 51.04 92.02 49.67 91.28 48.42
  C 88.66 44.03 82.78 48.08 80.43 50.89
  Q 80.13 51.25 80.41 51.63
  L 88.04 61.87
  A 0.76 0.75 -39.7 0 0 89.16 61.97
  L 89.43 61.72
  A 1.36 1.35 51.1 0 0 89.61 59.95
  L 87.76 57.36
  A 0.86 0.85 -44.1 0 1 87.78 56.33
  C 89.60 54.05 92.45 56.52 94.39 57.24
  A 0.93 0.92 -50.9 0 0 95.21 57.15
  L 98.44 55.10
  A 1.01 1.01 0.0 0 0 98.87 54.54
  Q 99.35 53.13 98.74 51.77
  Q 98.53 51.30 98.97 51.01
  L 103.30 48.19
  A 0.51 0.51 0.0 0 1 104.00 48.33
  Q 105.56 50.60 108.04 49.16
  A 0.52 0.51 -41.7 0 0 108.09 48.31
  L 97.01 39.77
  Q 96.57 39.43 96.02 39.56
  C 92.63 40.36 95.12 45.42 95.28 47.75
  Q 95.48 50.76 96.41 53.25
  Q 97.84 57.07 94.63 54.55
  Z
  M 304.72 46.21
  L 306.56 47.32
  Q 307.38 47.82 308.06 47.15
  L 308.27 46.95
  A 0.67 0.67 0.0 0 0 308.17 45.90
  L 300.36 40.83
  Q 299.81 40.47 299.52 41.06
  L 299.13 41.90
  Q 298.80 42.59 299.52 42.83
  Q 300.59 43.20 301.47 43.92
  A 0.96 0.96 0.0 0 1 301.64 45.21
  L 296.15 52.97
  Q 295.39 54.06 296.35 54.97
  L 296.79 55.40
  A 0.87 0.86 37.7 0 0 298.12 55.23
  L 303.62 46.47
  Q 304.04 45.79 304.72 46.21
  Z
  M 307.16 55.03
  A 0.44 0.44 0.0 0 1 307.78 54.95
  L 312.37 58.48
  A 0.44 0.44 0.0 0 0 312.98 58.40
  L 313.77 57.43
  A 0.44 0.44 0.0 0 0 313.69 56.80
  L 308.92 53.24
  A 0.44 0.44 0.0 0 1 308.83 52.63
  L 310.44 50.37
  A 0.44 0.44 0.0 0 1 311.06 50.27
  L 316.29 54.16
  A 0.44 0.44 0.0 0 0 316.98 53.92
  L 317.32 52.69
  A 0.44 0.44 0.0 0 0 317.17 52.22
  L 310.59 47.16
  A 0.44 0.44 0.0 0 0 309.97 47.24
  L 301.97 57.87
  A 0.44 0.44 0.0 0 0 302.06 58.48
  L 308.98 63.61
  A 0.44 0.44 0.0 0 0 309.61 63.50
  L 310.29 62.46
  A 0.44 0.44 0.0 0 0 310.17 61.86
  L 305.14 58.36
  A 0.44 0.44 0.0 0 1 305.05 57.72
  L 307.16 55.03
  Z
  M 81.75 64.94
  L 80.10 66.47
  Q 78.51 67.94 77.09 66.31
  L 71.02 59.36
  Q 70.35 58.61 69.60 59.27
  L 69.25 59.58
  A 0.86 0.86 0.0 0 0 69.14 60.75
  Q 72.26 64.74 75.86 68.44
  C 78.64 71.31 82.06 68.06 84.16 65.87
  Q 86.46 63.48 84.37 60.96
  Q 81.24 57.18 77.76 53.26
  A 0.83 0.83 0.0 0 0 76.36 53.54
  L 76.22 53.97
  A 1.57 1.57 0.0 0 0 76.50 55.49
  L 81.94 61.95
  Q 83.27 63.54 81.75 64.94
  Z
  M 317.33 64.28
  A 1.59 1.58 5.3 0 1 315.27 65.99
  Q 313.88 65.55 312.73 64.56
  A 0.75 0.74 -57.0 0 0 311.57 64.81
  L 311.32 65.33
  A 1.13 1.13 0.0 0 0 311.60 66.66
  C 316.41 70.83 321.99 67.23 318.60 60.87
  A 0.99 0.99 0.0 0 1 318.60 59.95
  C 319.07 59.04 320.09 58.75 320.98 59.33
  Q 321.94 59.95 322.44 61.17
  A 0.83 0.82 -21.5 0 0 323.50 61.62
  L 323.87 61.47
  A 1.24 1.23 67.2 0 0 324.55 59.80
  C 322.64 55.64 316.59 54.97 316.05 60.42
  Q 316.01 60.91 316.27 61.33
  Q 317.13 62.66 317.33 64.28
  Z
  M 63.99 67.75
  A 0.34 0.34 0.0 0 1 64.46 67.77
  L 72.25 76.03
  A 0.34 0.34 0.0 0 0 72.75 76.02
  L 74.19 74.41
  A 0.34 0.34 0.0 0 0 74.18 73.94
  L 66.20 66.06
  A 0.34 0.34 0.0 0 1 66.18 65.60
  L 68.81 62.53
  A 0.34 0.34 0.0 0 0 68.74 62.02
  L 67.87 61.46
  A 0.34 0.34 0.0 0 0 67.45 61.51
  L 59.97 68.78
  A 0.34 0.34 0.0 0 0 59.98 69.27
  L 60.78 70.04
  A 0.34 0.34 0.0 0 0 61.23 70.06
  L 63.99 67.75
  Z
  M 322.16 71.61
  L 325.40 74.76
  A 0.81 0.81 0.0 0 1 325.57 75.68
  L 324.75 77.48
  A 1.28 1.28 0.0 0 0 325.05 78.96
  L 325.43 79.32
  A 0.86 0.86 0.0 0 0 326.80 79.03
  L 332.02 66.96
  A 1.76 1.76 0.0 0 0 329.69 64.66
  L 318.60 69.60
  Q 314.97 71.22 318.91 72.08
  Q 319.71 72.26 321.14 71.47
  Q 321.70 71.16 322.16 71.61
  Z
  M 337.44 85.33
  C 337.49 82.67 338.49 80.22 338.64 77.50
  C 338.71 76.08 339.92 73.18 338.59 72.14
  A 0.80 0.79 -46.5 0 0 337.57 72.17
  L 327.87 80.75
  A 0.71 0.71 0.0 0 0 327.97 81.89
  L 328.23 82.04
  A 1.33 1.32 -50.0 0 0 329.81 81.90
  L 335.50 76.79
  Q 336.02 76.33 336.12 77.01
  C 336.48 79.30 335.51 81.46 335.26 83.14
  Q 334.83 85.93 334.64 88.75
  Q 334.54 90.20 335.85 90.12
  A 0.51 0.51 0.0 0 0 336.15 90.00
  L 345.65 81.66
  Q 346.23 81.16 345.71 80.59
  L 345.29 80.14
  Q 344.67 79.47 344.01 80.09
  L 338.11 85.63
  A 0.40 0.40 0.0 0 1 337.44 85.33
  Z
  M 64.91 80.63
  Q 66.08 80.73 67.25 80.81
  Q 69.02 80.93 68.92 79.30
  A 0.62 0.62 0.0 0 0 68.50 78.76
  Q 62.86 76.93 57.19 74.63
  Q 55.08 73.78 54.06 75.23
  A 1.66 1.66 0.0 0 0 53.93 76.91
  L 59.77 88.56
  A 0.90 0.90 0.0 0 0 60.88 89.00
  Q 61.95 88.61 61.50 86.99
  Q 61.23 86.04 61.01 84.99
  Q 60.88 84.42 61.28 83.99
  L 64.10 80.94
  Q 64.43 80.58 64.91 80.63
  Z
  M 54.85 88.81
  A 0.50 0.50 0.0 0 1 54.55 89.71
  L 44.28 89.69
  Q 38.71 89.68 43.14 93.07
  L 51.65 99.57
  Q 52.39 100.13 52.93 99.37
  L 53.20 98.99
  A 0.90 0.90 0.0 0 0 52.99 97.74
  L 46.67 93.10
  Q 45.20 92.02 47.02 92.03
  Q 52.08 92.06 57.92 91.52
  Q 59.05 91.41 59.32 90.96
  Q 59.94 89.94 59.15 89.34
  L 49.44 82.05
  A 1.11 1.10 44.0 0 0 48.08 82.07
  L 47.85 82.26
  Q 46.93 83.00 47.88 83.69
  L 54.85 88.81
  Z
  M 344.03 97.32
  L 342.75 99.56
  Q 342.47 100.05 342.89 100.43
  L 343.89 101.36
  A 0.45 0.45 0.0 0 0 344.58 101.27
  L 351.93 89.99
  A 1.83 1.83 0.0 0 0 349.89 87.23
  L 336.71 91.01
  Q 335.83 91.26 336.48 91.90
  L 337.69 93.09
  Q 338.16 93.55 338.70 93.15
  L 339.93 92.24
  A 0.64 0.64 0.0 0 1 340.82 92.36
  L 343.96 96.35
  Q 344.32 96.81 344.03 97.32
  Z
  M 348.25 104.60
  A 0.55 0.55 0.0 0 1 348.41 103.81
  L 357.61 98.06
  A 0.55 0.55 0.0 0 0 357.82 97.38
  L 357.29 96.09
  A 0.55 0.55 0.0 0 0 356.50 95.83
  L 345.19 102.75
  A 0.55 0.55 0.0 0 0 345.02 103.51
  L 349.52 110.69
  A 0.55 0.55 0.0 0 0 350.29 110.86
  L 351.46 110.07
  A 0.55 0.55 0.0 0 0 351.60 109.30
  L 348.25 104.60
  Z
  M 95.59 400.84
  L 91.93 401.17
  A 0.38 0.38 0.0 0 0 91.61 401.44
  L 91.52 401.80
  Q 91.36 402.45 92.02 402.45
  L 104.45 402.39
  A 0.49 0.49 0.0 0 0 104.94 401.89
  L 104.94 401.48
  A 0.28 0.28 0.0 0 0 104.64 401.20
  Q 101.94 401.35 101.08 399.68
  Q 94.40 386.67 87.60 373.78
  A 0.90 0.89 -45.3 0 0 86.01 373.79
  Q 79.54 386.37 72.65 398.96
  C 71.68 400.73 70.51 401.23 68.59 401.23
  Q 68.02 401.23 67.99 401.79
  L 67.98 402.08
  A 0.30 0.29 -88.2 0 0 68.27 402.40
  L 79.21 402.38
  A 0.48 0.48 0.0 0 0 79.69 401.90
  L 79.70 401.48
  Q 79.70 401.24 79.46 401.21
  L 75.98 400.87
  A 0.80 0.80 0.0 0 1 75.33 399.74
  L 78.09 393.80
  A 1.16 1.16 0.0 0 1 79.12 393.14
  L 92.15 393.07
  A 0.77 0.77 0.0 0 1 92.84 393.50
  L 96.04 400.06
  A 0.55 0.54 -15.5 0 1 95.59 400.84
  Z
  M 241.16 375.83
  L 245.00 375.32
  Q 245.09 375.31 245.08 375.22
  L 245.06 374.88
  A 0.36 0.36 0.0 0 0 244.70 374.54
  Q 239.10 374.52 233.50 374.76
  Q 233.20 374.77 233.09 375.01
  A 0.23 0.23 0.0 0 0 233.27 375.34
  C 235.06 375.54 236.02 376.25 236.52 378.06
  Q 239.77 389.89 243.10 401.80
  A 1.44 1.43 72.9 0 0 244.93 402.77
  Q 245.74 402.51 246.06 401.81
  Q 250.83 391.45 256.02 381.36
  A 0.34 0.34 0.0 0 1 256.64 381.38
  Q 260.84 391.01 265.06 400.66
  Q 265.61 401.92 266.15 402.46
  A 1.55 1.55 0.0 0 0 268.72 401.84
  Q 272.71 389.28 277.38 377.53
  Q 278.20 375.47 280.52 375.49
  Q 280.65 375.49 280.65 375.37
  L 280.63 375.02
  Q 280.62 374.62 280.23 374.62
  L 271.15 374.60
  A 0.44 0.44 0.0 0 0 270.71 375.04
  L 270.72 375.41
  Q 270.72 375.59 270.91 375.58
  Q 272.84 375.51 274.04 375.90
  Q 275.19 376.28 274.79 377.41
  L 268.51 395.53
  A 0.53 0.53 0.0 0 1 267.52 395.56
  L 258.32 373.95
  A 0.76 0.76 0.0 0 0 256.93 373.92
  L 246.73 395.13
  Q 246.08 396.47 245.69 395.03
  L 240.66 376.59
  A 0.61 0.61 0.0 0 1 241.16 375.83
  Z
  M 33.60 379.78
  A 0.31 0.30 -67.5 0 1 34.12 379.56
  Q 44.42 390.20 54.79 400.32
  C 56.69 402.18 58.40 402.88 60.94 402.75
  A 0.35 0.35 0.0 0 0 61.28 402.38
  C 60.94 394.13 61.27 385.96 61.04 377.78
  C 60.94 374.56 63.88 376.32 65.39 375.26
  Q 66.19 374.69 65.21 374.68
  L 54.30 374.52
  Q 53.87 374.51 53.86 374.95
  L 53.86 375.30
  A 0.28 0.28 0.0 0 0 54.11 375.59
  L 57.92 376.05
  A 0.95 0.94 -86.6 0 1 58.75 376.99
  L 58.77 397.01
  A 0.53 0.53 0.0 0 1 57.87 397.38
  L 36.01 375.23
  A 2.45 2.45 0.0 0 0 34.24 374.50
  L 26.58 374.58
  Q 26.24 374.58 26.28 374.92
  L 26.32 375.21
  Q 26.34 375.42 26.55 375.45
  L 29.74 375.90
  A 1.48 1.46 4.1 0 1 31.01 377.35
  Q 31.02 387.99 31.06 398.55
  Q 31.07 400.53 29.96 400.85
  Q 28.90 401.16 26.84 401.09
  A 0.69 0.68 2.1 0 0 26.13 401.74
  L 26.11 402.03
  A 0.42 0.42 0.0 0 0 26.53 402.47
  L 37.81 402.42
  A 0.62 0.62 0.0 0 0 38.40 401.99
  L 38.48 401.72
  A 0.28 0.27 12.9 0 0 38.26 401.37
  L 34.19 400.72
  A 0.78 0.78 0.0 0 1 33.53 399.95
  L 33.60 379.78
  Z
  M 132.29 376.10
  Q 132.97 376.11 133.02 376.79
  L 133.23 380.21
  Q 133.26 380.64 133.68 380.54
  L 133.98 380.46
  A 1.14 1.13 -2.7 0 0 134.84 379.52
  L 135.43 375.20
  A 0.61 0.60 4.2 0 0 134.83 374.52
  L 107.23 374.51
  Q 106.73 374.51 106.73 375.02
  L 106.74 379.99
  Q 106.74 380.51 107.27 380.52
  Q 108.07 380.55 108.28 379.78
  Q 108.75 378.13 108.99 376.81
  A 0.97 0.96 -85.0 0 1 109.94 376.01
  L 117.74 375.96
  Q 118.45 375.95 118.49 376.66
  Q 119.20 388.41 118.29 400.14
  A 0.83 0.82 -0.8 0 1 117.55 400.90
  L 113.71 401.30
  A 0.27 0.26 -14.2 0 0 113.49 401.66
  L 113.62 401.96
  A 0.75 0.74 78.8 0 0 114.31 402.43
  L 127.77 402.45
  A 0.46 0.46 0.0 0 0 128.23 401.98
  L 128.22 401.65
  Q 128.22 401.12 127.69 401.09
  L 124.31 400.92
  A 1.11 1.11 0.0 0 1 123.25 399.81
  L 123.18 377.01
  Q 123.18 375.95 124.24 375.97
  L 132.29 376.10
  Z
  M 151.70 401.43
  A 0.19 0.19 0.0 0 0 151.53 401.25
  L 147.12 400.90
  A 0.19 0.19 0.0 0 1 146.95 400.71
  L 146.88 375.98
  A 0.19 0.19 0.0 0 1 147.05 375.79
  L 151.41 375.39
  A 0.19 0.19 0.0 0 0 151.58 375.20
  L 151.59 374.83
  A 0.19 0.19 0.0 0 0 151.41 374.64
  L 137.71 374.62
  A 0.19 0.19 0.0 0 0 137.52 374.82
  L 137.55 375.32
  A 0.19 0.19 0.0 0 0 137.72 375.49
  L 141.92 375.87
  A 0.19 0.19 0.0 0 1 142.09 376.06
  L 142.02 400.68
  A 0.19 0.19 0.0 0 1 141.85 400.87
  L 137.40 401.27
  A 0.19 0.19 0.0 0 0 137.24 401.51
  L 137.44 402.32
  A 0.19 0.19 0.0 0 0 137.63 402.46
  L 151.54 402.41
  A 0.19 0.19 0.0 0 0 151.72 402.22
  L 151.70 401.43
  Z
  M 162.83 375.80
  L 166.72 375.51
  Q 166.93 375.49 166.93 375.28
  L 166.94 374.89
  Q 166.94 374.65 166.71 374.65
  L 153.54 374.61
  Q 153.17 374.61 153.19 374.98
  L 153.22 375.30
  Q 153.24 375.56 153.49 375.51
  Q 156.71 374.92 157.86 377.36
  Q 163.62 389.58 169.53 401.73
  Q 170.19 403.10 171.53 402.88
  A 1.30 1.29 -81.1 0 0 172.50 402.17
  L 185.24 376.29
  Q 185.48 375.80 186.03 375.76
  Q 187.20 375.67 187.72 375.52
  Q 190.20 374.81 187.50 374.68
  Q 182.73 374.44 177.97 374.65
  Q 177.63 374.67 177.62 375.00
  L 177.61 375.28
  Q 177.60 375.45 177.77 375.47
  L 181.93 376.05
  A 0.51 0.50 -72.9 0 1 182.31 376.77
  L 173.04 396.36
  A 0.73 0.72 -44.9 0 1 171.73 396.36
  L 162.46 376.43
  Q 162.19 375.85 162.83 375.80
  Z
  M 200.60 388.56
  L 210.07 388.71
  A 0.84 0.83 -11.9 0 1 210.81 389.18
  Q 211.41 390.37 211.32 391.72
  A 0.47 0.47 0.0 0 0 211.75 392.23
  L 212.13 392.27
  Q 212.86 392.35 212.88 391.61
  L 213.07 383.66
  A 0.50 0.50 0.0 0 0 212.32 383.21
  Q 211.31 383.79 211.40 385.09
  A 1.80 1.79 87.4 0 1 209.65 387.01
  L 200.40 387.21
  A 0.39 0.39 0.0 0 1 200.00 386.81
  L 200.10 376.67
  A 0.72 0.72 0.0 0 1 200.84 375.96
  L 213.17 376.24
  A 0.98 0.97 -0.9 0 1 214.13 377.16
  L 214.29 380.26
  Q 214.31 380.79 214.78 380.52
  Q 215.33 380.20 215.55 379.55
  Q 216.22 377.51 216.25 375.12
  A 0.56 0.55 -89.5 0 0 215.70 374.55
  L 191.25 374.53
  Q 188.63 374.53 191.07 375.57
  Q 192.08 376.00 193.98 375.85
  A 1.02 1.02 0.0 0 1 195.07 376.87
  L 195.10 399.84
  A 1.05 1.04 86.9 0 1 194.17 400.88
  L 191.06 401.23
  A 0.30 0.30 0.0 0 0 190.80 401.49
  L 190.75 401.96
  A 0.46 0.45 -87.7 0 0 191.21 402.46
  L 216.40 402.35
  Q 216.89 402.35 216.93 401.85
  L 217.34 396.78
  Q 217.38 396.18 216.79 396.21
  L 216.50 396.22
  Q 215.72 396.25 215.57 397.01
  L 215.06 399.50
  A 0.85 0.85 0.0 0 1 214.36 400.17
  Q 207.84 401.19 201.24 400.69
  A 1.21 1.20 1.8 0 1 200.12 399.50
  L 200.01 389.15
  Q 200.01 388.55 200.60 388.56
  Z
  M 292.81 375.76
  L 296.80 375.50
  A 0.30 0.29 -80.7 0 0 297.06 375.31
  L 297.14 375.07
  Q 297.30 374.64 296.84 374.64
  L 283.30 374.64
  Q 282.91 374.64 282.90 375.03
  L 282.90 375.33
  Q 282.90 375.42 282.99 375.43
  L 286.41 375.73
  A 1.18 1.17 -87.3 0 1 287.47 376.90
  L 287.47 399.67
  A 1.26 1.26 0.0 0 1 286.26 400.93
  Q 284.72 400.98 283.11 401.41
  Q 282.76 401.50 282.74 401.83
  Q 282.71 402.39 283.26 402.39
  L 296.57 402.43
  A 0.56 0.56 0.0 0 0 297.13 401.80
  L 297.08 401.48
  A 0.37 0.37 0.0 0 0 296.74 401.16
  L 293.11 400.92
  A 0.94 0.93 -88.4 0 1 292.23 399.98
  L 292.16 376.46
  A 0.69 0.69 0.0 0 1 292.81 375.76
  Z
  M 306.56 379.61
  A 0.41 0.41 0.0 0 1 307.27 379.33
  Q 317.49 389.85 327.83 400.17
  Q 330.62 402.96 333.91 402.64
  Q 334.46 402.59 334.42 402.03
  Q 333.51 388.45 334.15 377.99
  Q 334.36 374.58 338.31 375.72
  Q 338.48 375.77 338.54 375.60
  L 338.74 375.02
  Q 338.86 374.65 338.47 374.65
  L 327.14 374.59
  Q 326.78 374.59 326.78 374.95
  L 326.77 375.37
  Q 326.77 375.42 326.91 375.44
  L 330.60 375.99
  A 1.10 1.10 0.0 0 1 331.55 377.07
  L 331.84 396.89
  A 0.62 0.62 0.0 0 1 330.78 397.33
  L 308.88 375.12
  A 2.02 2.01 -22.8 0 0 307.43 374.53
  L 299.69 374.63
  Q 299.48 374.63 299.53 374.83
  L 299.66 375.35
  Q 299.69 375.49 299.83 375.48
  Q 301.92 375.42 303.76 376.34
  Q 304.32 376.62 304.32 377.25
  L 304.28 399.65
  Q 304.28 400.20 303.79 400.46
  Q 302.03 401.39 300.03 401.04
  A 0.41 0.40 -86.7 0 0 299.56 401.47
  L 299.58 401.82
  Q 299.61 402.43 300.22 402.43
  L 310.43 402.41
  Q 310.96 402.41 310.98 401.88
  L 310.99 401.51
  A 0.41 0.41 0.0 0 0 310.60 401.08
  L 308.00 400.97
  Q 307.45 400.95 307.33 400.41
  C 305.90 393.87 306.43 386.21 306.56 379.61
  Z
  M 351.15 386.56
  L 351.28 376.59
  A 0.67 0.66 -88.7 0 1 351.96 375.93
  L 364.14 376.24
  A 0.83 0.82 -0.4 0 1 364.95 377.03
  Q 365.00 378.22 365.12 379.56
  Q 365.19 380.29 365.68 380.50
  Q 366.29 380.75 366.47 380.12
  L 367.84 375.27
  A 0.62 0.61 -82.4 0 0 367.25 374.49
  L 341.69 374.57
  Q 341.19 374.57 341.29 375.06
  L 341.35 375.40
  A 0.48 0.48 0.0 0 0 341.90 375.78
  Q 343.99 375.45 345.73 376.50
  Q 346.27 376.83 346.27 377.46
  L 346.26 399.30
  A 1.56 1.55 -4.8 0 1 344.96 400.83
  L 341.79 401.35
  Q 341.56 401.38 341.56 401.62
  L 341.55 401.97
  A 0.43 0.43 0.0 0 0 341.97 402.41
  L 367.22 402.46
  A 0.53 0.53 0.0 0 0 367.75 401.88
  Q 367.53 399.32 368.47 396.94
  Q 368.84 396.00 367.83 395.87
  L 367.48 395.83
  Q 366.67 395.72 366.56 396.53
  Q 366.35 398.12 365.61 399.54
  Q 365.34 400.05 364.78 400.15
  Q 358.68 401.27 352.50 400.63
  A 1.39 1.39 0.0 0 1 351.25 399.25
  L 351.20 389.42
  Q 351.20 388.53 352.09 388.54
  L 360.45 388.65
  A 1.16 1.11 -23.5 0 1 361.15 388.91
  Q 362.26 389.85 362.16 391.28
  Q 362.09 392.18 362.99 392.30
  L 363.30 392.34
  A 0.57 0.57 0.0 0 0 363.95 391.77
  L 363.96 383.99
  Q 363.96 383.35 363.33 383.33
  L 362.88 383.31
  Q 362.29 383.28 362.29 383.87
  C 362.29 388.52 354.95 387.32 351.70 387.15
  Q 351.14 387.12 351.15 386.56
  Z"
/>
<path fill="#000000" d="
  M 189.57 20.80
  C 190.20 24.66 193.84 25.40 196.60 22.99
  Q 197.00 22.64 197.45 22.92
  Q 198.36 23.50 198.17 24.45
  C 197.65 27.01 191.94 27.02 190.48 26.33
  C 183.70 23.10 185.82 9.95 196.24 12.91
  Q 198.31 13.50 197.65 16.12
  A 0.67 0.67 0.0 0 1 196.47 16.36
  C 192.87 11.55 188.85 16.38 189.57 20.80
  Z"
/>
<rect fill="#000000" x="-1.26" y="-7.05" transform="translate(201.26,19.64) rotate(0.2)" width="2.52" height="14.10" rx="0.77"/>
<rect fill="#000000" x="-1.27" y="-7.06" transform="translate(183.71,19.92) rotate(-1.9)" width="2.54" height="14.12" rx="0.59"/>
<path fill="#000000" d="
  M 211.1657 27.3697
  A 7.37 6.91 90.5 0 1 204.3203 19.9397
  A 7.37 6.91 90.5 0 1 211.2943 12.6303
  A 7.37 6.91 90.5 0 1 218.1397 20.0603
  A 7.37 6.91 90.5 0 1 211.1657 27.3697
  Z
  M 210.8385 25.0146
  A 4.99 4.34 94.5 0 0 215.5566 20.3805
  A 4.99 4.34 94.5 0 0 211.6215 15.0654
  A 4.99 4.34 94.5 0 0 206.9034 19.6995
  A 4.99 4.34 94.5 0 0 210.8385 25.0146
  Z"
/>
<path fill="#000000" d="
  M 222.98 18.23
  L 221.86 26.87
  Q 221.72 27.94 220.65 27.77
  L 220.08 27.68
  Q 219.10 27.53 219.27 26.55
  L 221.36 14.27
  A 1.22 1.22 0.0 0 1 223.61 13.86
  L 229.34 23.70
  A 0.46 0.46 0.0 0 0 230.19 23.51
  L 230.91 16.49
  Q 231.04 15.27 232.26 15.26
  L 232.99 15.26
  Q 234.17 15.25 233.79 16.38
  C 232.43 20.35 232.81 24.58 231.57 28.65
  A 1.10 1.10 0.0 0 1 229.56 28.87
  L 223.42 18.14
  A 0.24 0.24 0.0 0 0 222.98 18.23
  Z"
/>
<path fill="#000000" d="
  M 167.21 15.16
  A 0.89 0.89 0.0 0 1 167.99 14.17
  L 172.72 13.59
  A 6.76 6.67 -7.0 0 1 180.24 19.39
  L 180.34 20.20
  A 6.76 6.67 -7.0 0 1 174.45 27.64
  L 169.71 28.23
  A 0.89 0.89 0.0 0 1 168.72 27.45
  L 167.21 15.16
  Z
  M 169.80 17.47
  L 170.80 24.44
  A 1.55 1.55 0.0 0 0 172.56 25.75
  L 174.00 25.55
  A 4.53 4.53 0.0 0 0 177.84 20.42
  L 177.68 19.35
  A 4.53 4.53 0.0 0 0 172.55 15.51
  L 171.11 15.72
  A 1.55 1.55 0.0 0 0 169.80 17.47
  Z"
/>
<path fill="#000000" d="
  M 157.47 27.56
  L 157.13 29.62
  Q 156.96 30.69 155.88 30.77
  L 155.46 30.79
  Q 154.53 30.86 154.57 29.93
  C 154.69 26.40 155.71 23.16 156.15 19.69
  Q 156.44 17.44 157.65 15.92
  A 1.42 1.42 0.0 0 1 159.97 16.07
  L 167.15 27.88
  A 0.76 0.75 -27.0 0 1 166.79 28.96
  L 166.48 29.09
  A 1.55 1.55 0.0 0 1 164.62 28.56
  L 163.38 26.82
  Q 163.04 26.34 162.46 26.41
  L 158.19 26.88
  Q 157.57 26.95 157.47 27.56
  Z
  M 158.11 24.26
  A 0.34 0.34 0.0 0 0 158.51 24.63
  L 161.38 24.08
  A 0.34 0.34 0.0 0 0 161.62 23.59
  L 159.30 19.24
  A 0.34 0.34 0.0 0 0 158.66 19.37
  L 158.11 24.26
  Z"
/>
<ellipse fill="#ffffff" cx="0.00" cy="0.00" transform="translate(211.23,20.04) rotate(94.5)" rx="4.99" ry="4.34"/>
<path fill="#ffffff" d="
  M 169.80 17.47
  A 1.55 1.55 0.0 0 1 171.11 15.72
  L 172.55 15.51
  A 4.53 4.53 0.0 0 1 177.68 19.35
  L 177.84 20.42
  A 4.53 4.53 0.0 0 1 174.00 25.55
  L 172.56 25.75
  A 1.55 1.55 0.0 0 1 170.80 24.44
  L 169.80 17.47
  Z"
/>
<path fill="#000000" d="
  M 242.34 28.06
  L 237.94 27.42
  A 0.72 0.72 0.0 0 0 237.25 27.70
  L 236.01 29.36
  Q 235.25 30.36 234.18 29.71
  L 233.94 29.56
  A 0.85 0.84 31.2 0 1 233.65 28.39
  Q 237.01 22.85 240.91 17.68
  A 2.34 2.19 -87.5 0 1 241.37 17.23
  C 242.68 16.32 243.77 16.79 244.02 18.22
  Q 244.38 20.26 244.90 22.26
  C 245.71 25.43 245.20 28.52 246.37 31.64
  Q 246.65 32.38 245.89 32.15
  L 244.07 31.61
  A 1.00 0.99 3.6 0 1 243.39 30.85
  L 242.96 28.66
  Q 242.86 28.14 242.34 28.06
  Z
  M 238.93 24.43
  A 0.57 0.57 0.0 0 0 239.31 25.33
  L 242.21 25.78
  A 0.57 0.57 0.0 0 0 242.87 25.16
  L 242.45 21.32
  A 0.57 0.57 0.0 0 0 241.42 21.04
  L 238.93 24.43
  Z"
/>
<path fill="#000000" d="
  M 145.40 28.55
  L 146.03 31.97
  Q 146.19 32.88 145.27 32.99
  L 144.54 33.07
  Q 143.88 33.15 143.71 32.51
  L 140.62 21.54
  A 1.75 1.74 75.0 0 1 141.87 19.37
  C 144.00 18.83 146.77 17.67 148.79 18.34
  C 151.99 19.38 152.67 22.84 150.99 25.70
  Q 150.68 26.22 151.06 26.68
  L 153.58 29.76
  A 0.81 0.81 0.0 0 1 153.23 31.03
  L 152.92 31.15
  Q 151.75 31.58 151.02 30.58
  C 149.61 28.64 148.70 26.99 145.85 27.82
  Q 145.29 27.98 145.40 28.55
  Z
  M 143.39 22.55
  L 144.33 25.31
  A 1.20 1.20 0.0 0 0 145.86 26.06
  L 147.74 25.42
  A 2.59 2.57 -18.8 0 0 149.36 22.15
  L 149.31 21.98
  A 2.59 2.57 -18.8 0 0 146.03 20.39
  L 144.14 21.03
  A 1.20 1.20 0.0 0 0 143.39 22.55
  Z"
/>
<path fill="#ffffff" d="
  M 158.11 24.26
  L 158.66 19.37
  A 0.34 0.34 0.0 0 1 159.30 19.24
  L 161.62 23.59
  A 0.34 0.34 0.0 0 1 161.38 24.08
  L 158.51 24.63
  A 0.34 0.34 0.0 0 1 158.11 24.26
  Z"
/>
<path fill="#000000" d="
  M 250.86 31.31
  L 256.58 33.24
  A 0.41 0.41 0.0 0 1 256.84 33.75
  L 256.50 34.78
  A 0.41 0.41 0.0 0 1 256.00 35.05
  L 247.77 32.59
  A 0.41 0.41 0.0 0 1 247.49 32.07
  L 251.33 19.64
  A 0.41 0.41 0.0 0 1 251.67 19.35
  L 253.34 19.11
  A 0.41 0.41 0.0 0 1 253.80 19.63
  L 250.60 30.80
  A 0.41 0.41 0.0 0 0 250.86 31.31
  Z"
/>
<path fill="#ffffff" d="
  M 143.39 22.55
  A 1.20 1.20 0.0 0 1 144.14 21.03
  L 146.03 20.39
  A 2.59 2.57 -18.8 0 1 149.31 21.98
  L 149.36 22.15
  A 2.59 2.57 -18.8 0 1 147.74 25.42
  L 145.86 26.06
  A 1.20 1.20 0.0 0 1 144.33 25.31
  L 143.39 22.55
  Z"
/>
<path fill="#ffffff" d="
  M 238.93 24.43
  L 241.42 21.04
  A 0.57 0.57 0.0 0 1 242.45 21.32
  L 242.87 25.16
  A 0.57 0.57 0.0 0 1 242.21 25.78
  L 239.31 25.33
  A 0.57 0.57 0.0 0 1 238.93 24.43
  Z"
/>
<path fill="#000000" d="
  M 132.27 25.14
  L 130.49 25.71
  Q 128.53 26.34 129.04 24.61
  Q 129.17 24.20 130.45 23.72
  Q 133.98 22.42 137.77 21.11
  A 0.62 0.62 0.0 0 1 138.56 21.88
  Q 138.11 23.30 136.62 23.72
  A 1.36 1.36 0.0 0 0 135.70 25.49
  L 138.95 34.71
  A 0.76 0.75 -11.9 0 1 138.29 35.72
  L 137.76 35.76
  Q 136.53 35.84 136.14 34.68
  L 133.05 25.53
  Q 132.86 24.95 132.27 25.14
  Z"
/>
<path fill="#000000" d="
  M 23.92 180.26
  C 34.92 101.27 97.89 38.77 177.60 29.72
  Q 180.37 29.41 186.93 29.18
  C 192.71 28.98 197.68 28.16 204.10 28.80
  C 208.73 29.27 214.53 29.03 219.76 30.04
  C 221.41 30.36 223.21 30.25 224.75 30.51
  C 312.13 45.00 373.51 117.87 373.60 206.65
  Q 373.68 286.18 373.57 365.67
  A 0.56 0.56 0.0 0 1 373.01 366.23
  L 22.78 366.23
  A 0.51 0.51 0.0 0 1 22.27 365.72
  Q 22.26 281.54 22.30 197.50
  C 22.30 193.55 23.15 190.09 23.40 186.27
  Q 23.68 181.96 23.92 180.26
  Z
  M 183.50 35.71
  C 102.78 42.57 37.76 106.52 29.69 187.78
  Q 28.99 194.81 28.97 207.76
  Q 28.81 283.42 28.95 358.97
  A 0.54 0.54 0.0 0 0 29.49 359.51
  L 366.23 359.51
  A 0.28 0.27 0.0 0 0 366.51 359.24
  Q 366.51 278.65 366.54 198.00
  C 366.54 187.87 364.89 176.12 363.21 168.75
  C 344.34 86.05 269.44 28.41 183.50 35.71
  Z"
/>
<path fill="#000000" d="
  M 273.68 39.60
  L 272.02 41.10
  A 1.02 1.01 42.0 0 1 270.74 41.16
  L 269.95 40.57
  Q 269.29 40.09 269.89 39.53
  Q 274.65 35.18 279.65 30.64
  Q 280.98 29.44 282.60 31.00
  Q 282.89 31.28 282.86 31.69
  L 281.80 45.02
  Q 281.72 46.06 280.72 45.77
  L 280.24 45.63
  A 1.07 1.07 0.0 0 1 279.46 44.59
  L 279.48 42.38
  Q 279.48 41.83 278.98 41.60
  L 274.56 39.48
  Q 274.07 39.25 273.68 39.60
  Z
  M 275.92 37.14
  A 0.42 0.42 0.0 0 0 276.00 37.81
  L 278.82 39.40
  A 0.42 0.42 0.0 0 0 279.44 39.12
  L 280.57 33.81
  A 0.42 0.42 0.0 0 0 279.87 33.42
  L 275.92 37.14
  Z"
/>
<path fill="#ffffff" d="
  M 275.92 37.14
  L 279.87 33.42
  A 0.42 0.42 0.0 0 1 280.57 33.81
  L 279.44 39.12
  A 0.42 0.42 0.0 0 1 278.82 39.40
  L 276.00 37.81
  A 0.42 0.42 0.0 0 1 275.92 37.14
  Z"
/>
<path fill="#000000" d="
  M 292.17 46.55
  L 292.21 51.00
  Q 292.22 52.11 291.25 51.56
  L 290.56 51.17
  Q 289.43 50.53 289.48 49.24
  L 289.63 45.33
  A 0.70 0.68 -73.2 0 0 289.31 44.71
  L 287.82 43.76
  Q 287.18 43.36 286.82 44.02
  L 285.39 46.61
  A 1.34 1.34 0.0 0 1 283.62 47.17
  L 283.37 47.05
  Q 282.58 46.66 283.00 45.89
  L 288.99 34.94
  Q 289.24 34.48 289.73 34.67
  Q 293.56 36.17 296.56 38.96
  Q 296.94 39.32 297.00 39.84
  Q 297.60 44.84 292.69 45.89
  Q 292.17 46.01 292.17 46.55
  Z
  M 290.03 38.20
  L 288.53 40.86
  A 1.08 1.08 0.0 0 0 288.94 42.34
  L 290.60 43.27
  A 2.78 2.54 29.3 0 0 294.27 42.41
  L 294.34 42.29
  A 2.78 2.54 29.3 0 0 293.15 38.71
  L 291.50 37.78
  A 1.08 1.08 0.0 0 0 290.03 38.20
  Z"
/>
<path fill="#000000" d="
  M 111.30 45.00
  L 116.50 41.97
  A 0.45 0.45 0.0 0 1 117.08 42.08
  L 117.89 43.13
  A 0.45 0.45 0.0 0 1 117.75 43.80
  L 109.97 47.99
  A 0.45 0.45 0.0 0 1 109.36 47.80
  L 103.33 36.05
  A 0.45 0.45 0.0 0 1 103.43 35.51
  L 104.50 34.57
  A 0.45 0.45 0.0 0 1 105.19 34.69
  L 110.68 44.82
  A 0.45 0.45 0.0 0 0 111.30 45.00
  Z"
/>
<path fill="#ffffff" d="
  M 29.69 187.78
  C 37.76 106.52 102.78 42.57 183.50 35.71
  C 269.44 28.41 344.34 86.05 363.21 168.75
  C 364.89 176.12 366.54 187.87 366.54 198.00
  Q 366.51 278.65 366.51 359.24
  A 0.28 0.27 -0.0 0 1 366.23 359.51
  L 29.49 359.51
  A 0.54 0.54 0.0 0 1 28.95 358.97
  Q 28.81 283.42 28.97 207.76
  Q 28.99 194.81 29.69 187.78
  Z
  M 110.72 156.37
  A 0.50 0.47 41.6 0 1 111.40 156.35
  L 136.61 178.14
  A 0.22 0.21 20.3 0 0 136.97 177.98
  Q 136.95 176.01 137.21 174.03
  Q 138.89 161.35 142.26 149.00
  A 1.08 1.08 0.0 0 0 141.95 147.91
  Q 132.94 139.68 123.56 131.42
  Q 121.74 129.81 119.25 129.99
  C 100.95 131.33 83.30 130.44 64.87 129.95
  Q 64.29 129.93 64.30 130.51
  L 64.38 136.96
  Q 64.39 137.51 64.94 137.49
  C 70.59 137.33 79.73 136.63 85.06 138.74
  C 94.31 142.39 95.31 147.03 95.36 156.30
  Q 95.64 205.28 95.20 254.25
  Q 95.10 264.30 93.80 274.24
  C 93.12 279.36 90.38 282.15 85.18 282.99
  C 78.73 284.03 72.30 283.78 64.85 283.70
  Q 64.32 283.69 64.32 284.22
  L 64.39 290.31
  Q 64.39 290.85 64.93 290.82
  C 87.39 289.70 110.01 290.22 132.50 290.23
  Q 137.62 290.23 141.57 291.00
  A 0.25 0.25 0.0 0 0 141.87 290.76
  L 142.05 284.00
  Q 142.05 283.74 141.79 283.71
  Q 132.76 282.93 123.59 282.45
  Q 122.54 282.39 121.27 281.97
  C 119.37 281.35 117.34 281.45 115.90 280.34
  C 113.10 278.19 112.20 272.57 111.93 269.30
  C 111.07 258.92 110.47 249.05 110.48 238.22
  Q 110.53 197.56 110.49 156.91
  Q 110.49 156.74 110.56 156.61
  Q 110.64 156.47 110.72 156.37
  Z
  M 279.45 264.83
  A 0.36 0.36 0.0 0 1 278.87 265.11
  L 248.61 240.42
  Q 247.78 239.73 247.41 240.75
  Q 243.19 252.32 234.95 261.47
  A 0.98 0.98 0.0 0 0 235.05 262.88
  Q 248.53 274.01 261.61 284.42
  C 265.79 287.75 270.03 290.50 274.73 291.11
  Q 285.81 292.54 296.10 293.61
  Q 297.43 293.75 297.28 292.43
  C 295.45 276.55 294.58 260.21 294.55 244.18
  Q 294.45 188.49 294.57 173.50
  Q 294.74 152.42 295.76 145.74
  Q 296.49 140.92 301.24 139.16
  C 308.48 136.48 317.80 137.37 325.28 137.49
  Q 325.98 137.51 325.99 136.81
  L 326.07 130.71
  Q 326.08 130.00 325.37 130.00
  Q 319.89 129.98 318.25 130.06
  C 292.28 131.42 270.91 130.62 247.13 129.90
  A 0.58 0.57 -89.0 0 0 246.54 130.48
  L 246.55 136.97
  A 0.67 0.67 0.0 0 0 247.25 137.64
  C 251.88 137.49 255.92 137.53 260.87 138.25
  C 266.07 139.01 277.26 139.18 278.03 145.74
  C 278.83 152.71 279.45 161.66 279.46 169.78
  Q 279.56 217.35 279.45 264.83
  Z
  M 184.99 253.63
  C 179.73 256.75 172.69 255.50 168.91 250.79
  C 159.20 238.64 156.39 219.27 155.82 204.00
  Q 155.05 183.33 157.15 162.77
  C 157.51 159.24 158.51 154.14 158.74 149.69
  Q 158.77 149.15 158.24 149.14
  L 149.24 148.94
  A 0.96 0.95 -80.9 0 0 148.30 149.63
  C 142.25 170.15 140.48 190.01 142.34 212.23
  C 143.80 229.66 151.42 259.66 171.92 264.44
  C 176.60 265.53 180.68 263.93 184.82 261.78
  Q 185.82 261.27 185.84 260.14
  L 185.95 254.19
  Q 185.97 253.06 184.99 253.63
  Z
  M 222.82 263.10
  C 238.12 256.42 245.61 231.88 247.56 216.50
  C 250.42 193.96 248.23 171.91 242.19 150.06
  A 1.47 1.47 0.0 0 0 240.76 148.98
  L 231.99 149.08
  Q 231.55 149.09 231.52 149.53
  C 231.35 152.83 232.40 156.66 232.67 158.91
  Q 235.72 184.89 233.79 210.99
  C 232.90 223.00 226.77 263.86 205.60 253.90
  Q 204.70 253.47 204.69 254.48
  L 204.65 260.19
  Q 204.65 261.19 205.49 261.71
  Q 214.01 266.94 222.82 263.10
  Z
  M 203.57 212.00
  L 203.61 234.94
  A 1.88 1.87 -69.7 0 0 204.26 236.36
  L 215.98 246.49
  A 0.94 0.94 0.0 0 0 217.33 246.37
  C 222.00 240.66 224.68 231.77 226.13 224.58
  C 226.43 223.09 226.98 221.76 225.63 220.62
  Q 194.17 194.00 163.07 166.91
  A 0.42 0.42 0.0 0 0 162.37 167.21
  L 161.26 198.09
  A 2.53 2.52 21.3 0 0 162.14 200.09
  L 186.73 221.29
  A 0.42 0.42 0.0 0 0 187.43 220.97
  L 187.42 212.15
  A 0.68 0.68 0.0 0 1 188.10 211.47
  L 203.00 211.44
  A 0.57 0.56 89.0 0 1 203.57 212.00
  Z
  M 200.27 215.03
  A 0.52 0.52 0.0 0 0 199.75 214.51
  L 191.01 214.51
  A 0.52 0.52 0.0 0 0 190.49 215.03
  L 190.49 319.93
  A 0.52 0.52 0.0 0 0 191.01 320.45
  L 199.75 320.45
  A 0.52 0.52 0.0 0 0 200.27 319.93
  L 200.27 215.03
  Z
  M 220.23 325.86
  A 0.61 0.61 0.0 0 0 219.62 325.25
  L 169.88 325.25
  A 0.61 0.61 0.0 0 0 169.27 325.86
  L 169.27 330.86
  A 0.61 0.61 0.0 0 0 169.88 331.47
  L 219.62 331.47
  A 0.61 0.61 0.0 0 0 220.23 330.86
  L 220.23 325.86
  Z"
/>
<path fill="#ffffff" d="
  M 290.03 38.20
  A 1.08 1.08 0.0 0 1 291.50 37.78
  L 293.15 38.71
  A 2.78 2.54 29.3 0 1 294.34 42.29
  L 294.27 42.41
  A 2.78 2.54 29.3 0 1 290.60 43.27
  L 288.94 42.34
  A 1.08 1.08 0.0 0 1 288.53 40.86
  L 290.03 38.20
  Z"
/>
<path fill="#000000" d="
  M 94.63 54.55
  Q 97.84 57.07 96.41 53.25
  Q 95.48 50.76 95.28 47.75
  C 95.12 45.42 92.63 40.36 96.02 39.56
  Q 96.57 39.43 97.01 39.77
  L 108.09 48.31
  A 0.52 0.51 -41.7 0 1 108.04 49.16
  Q 105.56 50.60 104.00 48.33
  A 0.51 0.51 0.0 0 0 103.30 48.19
  L 98.97 51.01
  Q 98.53 51.30 98.74 51.77
  Q 99.35 53.13 98.87 54.54
  A 1.01 1.01 0.0 0 1 98.44 55.10
  L 95.21 57.15
  A 0.93 0.92 -50.9 0 1 94.39 57.24
  C 92.45 56.52 89.60 54.05 87.78 56.33
  A 0.86 0.85 -44.1 0 0 87.76 57.36
  L 89.61 59.95
  A 1.36 1.35 51.1 0 1 89.43 61.72
  L 89.16 61.97
  A 0.76 0.75 -39.7 0 1 88.04 61.87
  L 80.41 51.63
  Q 80.13 51.25 80.43 50.89
  C 82.78 48.08 88.66 44.03 91.28 48.42
  C 92.02 49.67 91.72 51.04 91.73 52.50
  A 0.88 0.87 13.2 0 0 92.21 53.26
  Q 94.22 54.23 94.63 54.55
  Z
  M 98.31 48.28
  A 0.40 0.40 0.0 0 0 98.92 48.47
  L 101.28 46.76
  A 0.40 0.40 0.0 0 0 101.29 46.12
  L 97.21 42.99
  A 0.40 0.40 0.0 0 0 96.59 43.44
  L 98.31 48.28
  Z
  M 83.57 51.74
  L 85.60 54.49
  A 0.77 0.77 0.0 0 0 86.68 54.65
  L 88.28 53.47
  A 2.82 2.29 -36.4 0 0 89.19 49.96
  L 88.96 49.65
  A 2.82 2.29 -36.4 0 0 85.33 49.48
  L 83.73 50.66
  A 0.77 0.77 0.0 0 0 83.57 51.74
  Z"
/>
<path fill="#000000" d="
  M 303.62 46.47
  L 298.12 55.23
  A 0.87 0.86 37.7 0 1 296.79 55.40
  L 296.35 54.97
  Q 295.39 54.06 296.15 52.97
  L 301.64 45.21
  A 0.96 0.96 0.0 0 0 301.47 43.92
  Q 300.59 43.20 299.52 42.83
  Q 298.80 42.59 299.13 41.90
  L 299.52 41.06
  Q 299.81 40.47 300.36 40.83
  L 308.17 45.90
  A 0.67 0.67 0.0 0 1 308.27 46.95
  L 308.06 47.15
  Q 307.38 47.82 306.56 47.32
  L 304.72 46.21
  Q 304.04 45.79 303.62 46.47
  Z"
/>
<path fill="#ffffff" d="
  M 98.31 48.28
  L 96.59 43.44
  A 0.40 0.40 0.0 0 1 97.21 42.99
  L 101.29 46.12
  A 0.40 0.40 0.0 0 1 101.28 46.76
  L 98.92 48.47
  A 0.40 0.40 0.0 0 1 98.31 48.28
  Z"
/>
<path fill="#000000" d="
  M 307.16 55.03
  L 305.05 57.72
  A 0.44 0.44 0.0 0 0 305.14 58.36
  L 310.17 61.86
  A 0.44 0.44 0.0 0 1 310.29 62.46
  L 309.61 63.50
  A 0.44 0.44 0.0 0 1 308.98 63.61
  L 302.06 58.48
  A 0.44 0.44 0.0 0 1 301.97 57.87
  L 309.97 47.24
  A 0.44 0.44 0.0 0 1 310.59 47.16
  L 317.17 52.22
  A 0.44 0.44 0.0 0 1 317.32 52.69
  L 316.98 53.92
  A 0.44 0.44 0.0 0 1 316.29 54.16
  L 311.06 50.27
  A 0.44 0.44 0.0 0 0 310.44 50.37
  L 308.83 52.63
  A 0.44 0.44 0.0 0 0 308.92 53.24
  L 313.69 56.80
  A 0.44 0.44 0.0 0 1 313.77 57.43
  L 312.98 58.40
  A 0.44 0.44 0.0 0 1 312.37 58.48
  L 307.78 54.95
  A 0.44 0.44 0.0 0 0 307.16 55.03
  Z"
/>
<path fill="#ffffff" d="
  M 83.57 51.74
  A 0.77 0.77 0.0 0 1 83.73 50.66
  L 85.33 49.48
  A 2.82 2.29 -36.4 0 1 88.96 49.65
  L 89.19 49.96
  A 2.82 2.29 -36.4 0 1 88.28 53.47
  L 86.68 54.65
  A 0.77 0.77 0.0 0 1 85.60 54.49
  L 83.57 51.74
  Z"
/>
<path fill="#000000" d="
  M 81.94 61.95
  L 76.50 55.49
  A 1.57 1.57 0.0 0 1 76.22 53.97
  L 76.36 53.54
  A 0.83 0.83 0.0 0 1 77.76 53.26
  Q 81.24 57.18 84.37 60.96
  Q 86.46 63.48 84.16 65.87
  C 82.06 68.06 78.64 71.31 75.86 68.44
  Q 72.26 64.74 69.14 60.75
  A 0.86 0.86 0.0 0 1 69.25 59.58
  L 69.60 59.27
  Q 70.35 58.61 71.02 59.36
  L 77.09 66.31
  Q 78.51 67.94 80.10 66.47
  L 81.75 64.94
  Q 83.27 63.54 81.94 61.95
  Z"
/>
<path fill="#000000" d="
  M 317.33 64.28
  Q 317.13 62.66 316.27 61.33
  Q 316.01 60.91 316.05 60.42
  C 316.59 54.97 322.64 55.64 324.55 59.80
  A 1.24 1.23 67.2 0 1 323.87 61.47
  L 323.50 61.62
  A 0.83 0.82 -21.5 0 1 322.44 61.17
  Q 321.94 59.95 320.98 59.33
  C 320.09 58.75 319.07 59.04 318.60 59.95
  A 0.99 0.99 0.0 0 0 318.60 60.87
  C 321.99 67.23 316.41 70.83 311.60 66.66
  A 1.13 1.13 0.0 0 1 311.32 65.33
  L 311.57 64.81
  A 0.75 0.74 -57.0 0 1 312.73 64.56
  Q 313.88 65.55 315.27 65.99
  A 1.59 1.58 5.3 0 0 317.33 64.28
  Z"
/>
<path fill="#000000" d="
  M 63.99 67.75
  L 61.23 70.06
  A 0.34 0.34 0.0 0 1 60.78 70.04
  L 59.98 69.27
  A 0.34 0.34 0.0 0 1 59.97 68.78
  L 67.45 61.51
  A 0.34 0.34 0.0 0 1 67.87 61.46
  L 68.74 62.02
  A 0.34 0.34 0.0 0 1 68.81 62.53
  L 66.18 65.60
  A 0.34 0.34 0.0 0 0 66.20 66.06
  L 74.18 73.94
  A 0.34 0.34 0.0 0 1 74.19 74.41
  L 72.75 76.02
  A 0.34 0.34 0.0 0 1 72.25 76.03
  L 64.46 67.77
  A 0.34 0.34 0.0 0 0 63.99 67.75
  Z"
/>
<path fill="#000000" d="
  M 321.14 71.47
  Q 319.71 72.26 318.91 72.08
  Q 314.97 71.22 318.60 69.60
  L 329.69 64.66
  A 1.76 1.76 0.0 0 1 332.02 66.96
  L 326.80 79.03
  A 0.86 0.86 0.0 0 1 325.43 79.32
  L 325.05 78.96
  A 1.28 1.28 0.0 0 1 324.75 77.48
  L 325.57 75.68
  A 0.81 0.81 0.0 0 0 325.40 74.76
  L 322.16 71.61
  Q 321.70 71.16 321.14 71.47
  Z
  M 328.92 68.32
  A 0.42 0.42 0.0 0 0 328.35 67.77
  L 323.93 69.92
  A 0.42 0.42 0.0 0 0 323.82 70.61
  L 326.31 72.95
  A 0.42 0.42 0.0 0 0 326.99 72.81
  L 328.92 68.32
  Z"
/>
<path fill="#ffffff" d="
  M 328.92 68.32
  L 326.99 72.81
  A 0.42 0.42 0.0 0 1 326.31 72.95
  L 323.82 70.61
  A 0.42 0.42 0.0 0 1 323.93 69.92
  L 328.35 67.77
  A 0.42 0.42 0.0 0 1 328.92 68.32
  Z"
/>
<path fill="#000000" d="
  M 337.44 85.33
  A 0.40 0.40 0.0 0 0 338.11 85.63
  L 344.01 80.09
  Q 344.67 79.47 345.29 80.14
  L 345.71 80.59
  Q 346.23 81.16 345.65 81.66
  L 336.15 90.00
  A 0.51 0.51 0.0 0 1 335.85 90.12
  Q 334.54 90.20 334.64 88.75
  Q 334.83 85.93 335.26 83.14
  C 335.51 81.46 336.48 79.30 336.12 77.01
  Q 336.02 76.33 335.50 76.79
  L 329.81 81.90
  A 1.33 1.32 -50.0 0 1 328.23 82.04
  L 327.97 81.89
  A 0.71 0.71 0.0 0 1 327.87 80.75
  L 337.57 72.17
  A 0.80 0.79 -46.5 0 1 338.59 72.14
  C 339.92 73.18 338.71 76.08 338.64 77.50
  C 338.49 80.22 337.49 82.67 337.44 85.33
  Z"
/>
<path fill="#000000" d="
  M 64.10 80.94
  L 61.28 83.99
  Q 60.88 84.42 61.01 84.99
  Q 61.23 86.04 61.50 86.99
  Q 61.95 88.61 60.88 89.00
  A 0.90 0.90 0.0 0 1 59.77 88.56
  L 53.93 76.91
  A 1.66 1.66 0.0 0 1 54.06 75.23
  Q 55.08 73.78 57.19 74.63
  Q 62.86 76.93 68.50 78.76
  A 0.62 0.62 0.0 0 1 68.92 79.30
  Q 69.02 80.93 67.25 80.81
  Q 66.08 80.73 64.91 80.63
  Q 64.43 80.58 64.10 80.94
  Z
  M 59.37 82.50
  A 0.31 0.31 0.0 0 0 59.88 82.56
  L 62.42 79.57
  A 0.31 0.31 0.0 0 0 62.28 79.08
  L 57.27 77.39
  A 0.31 0.31 0.0 0 0 56.89 77.83
  L 59.37 82.50
  Z"
/>
<path fill="#ffffff" d="
  M 59.37 82.50
  L 56.89 77.83
  A 0.31 0.31 0.0 0 1 57.27 77.39
  L 62.28 79.08
  A 0.31 0.31 0.0 0 1 62.42 79.57
  L 59.88 82.56
  A 0.31 0.31 0.0 0 1 59.37 82.50
  Z"
/>
<path fill="#000000" d="
  M 54.85 88.81
  L 47.88 83.69
  Q 46.93 83.00 47.85 82.26
  L 48.08 82.07
  A 1.11 1.10 44.0 0 1 49.44 82.05
  L 59.15 89.34
  Q 59.94 89.94 59.32 90.96
  Q 59.05 91.41 57.92 91.52
  Q 52.08 92.06 47.02 92.03
  Q 45.20 92.02 46.67 93.10
  L 52.99 97.74
  A 0.90 0.90 0.0 0 1 53.20 98.99
  L 52.93 99.37
  Q 52.39 100.13 51.65 99.57
  L 43.14 93.07
  Q 38.71 89.68 44.28 89.69
  L 54.55 89.71
  A 0.50 0.50 0.0 0 0 54.85 88.81
  Z"
/>
<path fill="#000000" d="
  M 343.96 96.35
  L 340.82 92.36
  A 0.64 0.64 0.0 0 0 339.93 92.24
  L 338.70 93.15
  Q 338.16 93.55 337.69 93.09
  L 336.48 91.90
  Q 335.83 91.26 336.71 91.01
  L 349.89 87.23
  A 1.83 1.83 0.0 0 1 351.93 89.99
  L 344.58 101.27
  A 0.45 0.45 0.0 0 1 343.89 101.36
  L 342.89 100.43
  Q 342.47 100.05 342.75 99.56
  L 344.03 97.32
  Q 344.32 96.81 343.96 96.35
  Z
  M 348.70 90.66
  A 0.30 0.30 0.0 0 0 348.38 90.20
  L 343.42 91.34
  A 0.30 0.30 0.0 0 0 343.24 91.80
  L 345.34 94.86
  A 0.30 0.30 0.0 0 0 345.84 94.86
  L 348.70 90.66
  Z"
/>
<path fill="#ffffff" d="
  M 348.70 90.66
  L 345.84 94.86
  A 0.30 0.30 0.0 0 1 345.34 94.86
  L 343.24 91.80
  A 0.30 0.30 0.0 0 1 343.42 91.34
  L 348.38 90.20
  A 0.30 0.30 0.0 0 1 348.70 90.66
  Z"
/>
<path fill="#000000" d="
  M 348.25 104.60
  L 351.60 109.30
  A 0.55 0.55 0.0 0 1 351.46 110.07
  L 350.29 110.86
  A 0.55 0.55 0.0 0 1 349.52 110.69
  L 345.02 103.51
  A 0.55 0.55 0.0 0 1 345.19 102.75
  L 356.50 95.83
  A 0.55 0.55 0.0 0 1 357.29 96.09
  L 357.82 97.38
  A 0.55 0.55 0.0 0 1 357.61 98.06
  L 348.41 103.81
  A 0.55 0.55 0.0 0 0 348.25 104.60
  Z"
/>
<path fill="#000000" d="
  M 110.72 156.37
  Q 110.64 156.47 110.56 156.61
  Q 110.49 156.74 110.49 156.91
  Q 110.53 197.56 110.48 238.22
  C 110.47 249.05 111.07 258.92 111.93 269.30
  C 112.20 272.57 113.10 278.19 115.90 280.34
  C 117.34 281.45 119.37 281.35 121.27 281.97
  Q 122.54 282.39 123.59 282.45
  Q 132.76 282.93 141.79 283.71
  Q 142.05 283.74 142.05 284.00
  L 141.87 290.76
  A 0.25 0.25 0.0 0 1 141.57 291.00
  Q 137.62 290.23 132.50 290.23
  C 110.01 290.22 87.39 289.70 64.93 290.82
  Q 64.39 290.85 64.39 290.31
  L 64.32 284.22
  Q 64.32 283.69 64.85 283.70
  C 72.30 283.78 78.73 284.03 85.18 282.99
  C 90.38 282.15 93.12 279.36 93.80 274.24
  Q 95.10 264.30 95.20 254.25
  Q 95.64 205.28 95.36 156.30
  C 95.31 147.03 94.31 142.39 85.06 138.74
  C 79.73 136.63 70.59 137.33 64.94 137.49
  Q 64.39 137.51 64.38 136.96
  L 64.30 130.51
  Q 64.29 129.93 64.87 129.95
  C 83.30 130.44 100.95 131.33 119.25 129.99
  Q 121.74 129.81 123.56 131.42
  Q 132.94 139.68 141.95 147.91
  A 1.08 1.08 0.0 0 1 142.26 149.00
  Q 138.89 161.35 137.21 174.03
  Q 136.95 176.01 136.97 177.98
  A 0.22 0.21 20.3 0 1 136.61 178.14
  L 111.40 156.35
  A 0.50 0.47 41.6 0 0 110.72 156.37
  Z"
/>
<path fill="#000000" d="
  M 279.45 264.83
  Q 279.56 217.35 279.46 169.78
  C 279.45 161.66 278.83 152.71 278.03 145.74
  C 277.26 139.18 266.07 139.01 260.87 138.25
  C 255.92 137.53 251.88 137.49 247.25 137.64
  A 0.67 0.67 0.0 0 1 246.55 136.97
  L 246.54 130.48
  A 0.58 0.57 -89.0 0 1 247.13 129.90
  C 270.91 130.62 292.28 131.42 318.25 130.06
  Q 319.89 129.98 325.37 130.00
  Q 326.08 130.00 326.07 130.71
  L 325.99 136.81
  Q 325.98 137.51 325.28 137.49
  C 317.80 137.37 308.48 136.48 301.24 139.16
  Q 296.49 140.92 295.76 145.74
  Q 294.74 152.42 294.57 173.50
  Q 294.45 188.49 294.55 244.18
  C 294.58 260.21 295.45 276.55 297.28 292.43
  Q 297.43 293.75 296.10 293.61
  Q 285.81 292.54 274.73 291.11
  C 270.03 290.50 265.79 287.75 261.61 284.42
  Q 248.53 274.01 235.05 262.88
  A 0.98 0.98 0.0 0 1 234.95 261.47
  Q 243.19 252.32 247.41 240.75
  Q 247.78 239.73 248.61 240.42
  L 278.87 265.11
  A 0.36 0.36 0.0 0 0 279.45 264.83
  Z"
/>
<path fill="#000000" d="
  M 168.91 250.79
  C 172.69 255.50 179.73 256.75 184.99 253.63
  Q 185.97 253.06 185.95 254.19
  L 185.84 260.14
  Q 185.82 261.27 184.82 261.78
  C 180.68 263.93 176.60 265.53 171.92 264.44
  C 151.42 259.66 143.80 229.66 142.34 212.23
  C 140.48 190.01 142.25 170.15 148.30 149.63
  A 0.96 0.95 -80.9 0 1 149.24 148.94
  L 158.24 149.14
  Q 158.77 149.15 158.74 149.69
  C 158.51 154.14 157.51 159.24 157.15 162.77
  Q 155.05 183.33 155.82 204.00
  C 156.39 219.27 159.20 238.64 168.91 250.79
  Z"
/>
<path fill="#000000" d="
  M 247.56 216.50
  C 245.61 231.88 238.12 256.42 222.82 263.10
  Q 214.01 266.94 205.49 261.71
  Q 204.65 261.19 204.65 260.19
  L 204.69 254.48
  Q 204.70 253.47 205.60 253.90
  C 226.77 263.86 232.90 223.00 233.79 210.99
  Q 235.72 184.89 232.67 158.91
  C 232.40 156.66 231.35 152.83 231.52 149.53
  Q 231.55 149.09 231.99 149.08
  L 240.76 148.98
  A 1.47 1.47 0.0 0 1 242.19 150.06
  C 248.23 171.91 250.42 193.96 247.56 216.50
  Z"
/>
<path fill="#000000" d="
  M 203.00 211.44
  L 188.10 211.47
  A 0.68 0.68 0.0 0 0 187.42 212.15
  L 187.43 220.97
  A 0.42 0.42 0.0 0 1 186.73 221.29
  L 162.14 200.09
  A 2.53 2.52 21.3 0 1 161.26 198.09
  L 162.37 167.21
  A 0.42 0.42 0.0 0 1 163.07 166.91
  Q 194.17 194.00 225.63 220.62
  C 226.98 221.76 226.43 223.09 226.13 224.58
  C 224.68 231.77 222.00 240.66 217.33 246.37
  A 0.94 0.94 0.0 0 1 215.98 246.49
  L 204.26 236.36
  A 1.88 1.87 -69.7 0 1 203.61 234.94
  L 203.57 212.00
  A 0.57 0.56 89.0 0 0 203.00 211.44
  Z"
/>
<rect fill="#000000" x="190.49" y="214.51" width="9.78" height="105.94" rx="0.52"/>
<rect fill="#000000" x="169.27" y="325.25" width="50.96" height="6.22" rx="0.61"/>
<path fill="#000000" d="
  M 95.59 400.84
  A 0.55 0.54 -15.5 0 0 96.04 400.06
  L 92.84 393.50
  A 0.77 0.77 0.0 0 0 92.15 393.07
  L 79.12 393.14
  A 1.16 1.16 0.0 0 0 78.09 393.80
  L 75.33 399.74
  A 0.80 0.80 0.0 0 0 75.98 400.87
  L 79.46 401.21
  Q 79.70 401.24 79.70 401.48
  L 79.69 401.90
  A 0.48 0.48 0.0 0 1 79.21 402.38
  L 68.27 402.40
  A 0.30 0.29 -88.2 0 1 67.98 402.08
  L 67.99 401.79
  Q 68.02 401.23 68.59 401.23
  C 70.51 401.23 71.68 400.73 72.65 398.96
  Q 79.54 386.37 86.01 373.79
  A 0.90 0.89 -45.3 0 1 87.60 373.78
  Q 94.40 386.67 101.08 399.68
  Q 101.94 401.35 104.64 401.20
  A 0.28 0.28 0.0 0 1 104.94 401.48
  L 104.94 401.89
  A 0.49 0.49 0.0 0 1 104.45 402.39
  L 92.02 402.45
  Q 91.36 402.45 91.52 401.80
  L 91.61 401.44
  A 0.38 0.38 0.0 0 1 91.93 401.17
  L 95.59 400.84
  Z
  M 79.87 390.51
  A 0.35 0.35 0.0 0 0 80.18 391.02
  L 91.08 391.02
  A 0.35 0.35 0.0 0 0 91.39 390.51
  L 85.94 379.73
  A 0.35 0.35 0.0 0 0 85.32 379.73
  L 79.87 390.51
  Z"
/>
<path fill="#000000" d="
  M 240.66 376.59
  L 245.69 395.03
  Q 246.08 396.47 246.73 395.13
  L 256.93 373.92
  A 0.76 0.76 0.0 0 1 258.32 373.95
  L 267.52 395.56
  A 0.53 0.53 0.0 0 0 268.51 395.53
  L 274.79 377.41
  Q 275.19 376.28 274.04 375.90
  Q 272.84 375.51 270.91 375.58
  Q 270.72 375.59 270.72 375.41
  L 270.71 375.04
  A 0.44 0.44 0.0 0 1 271.15 374.60
  L 280.23 374.62
  Q 280.62 374.62 280.63 375.02
  L 280.65 375.37
  Q 280.65 375.49 280.52 375.49
  Q 278.20 375.47 277.38 377.53
  Q 272.71 389.28 268.72 401.84
  A 1.55 1.55 0.0 0 1 266.15 402.46
  Q 265.61 401.92 265.06 400.66
  Q 260.84 391.01 256.64 381.38
  A 0.34 0.34 0.0 0 0 256.02 381.36
  Q 250.83 391.45 246.06 401.81
  Q 245.74 402.51 244.93 402.77
  A 1.44 1.43 72.9 0 1 243.10 401.80
  Q 239.77 389.89 236.52 378.06
  C 236.02 376.25 235.06 375.54 233.27 375.34
  A 0.23 0.23 0.0 0 1 233.09 375.01
  Q 233.20 374.77 233.50 374.76
  Q 239.10 374.52 244.70 374.54
  A 0.36 0.36 0.0 0 1 245.06 374.88
  L 245.08 375.22
  Q 245.09 375.31 245.00 375.32
  L 241.16 375.83
  A 0.61 0.61 0.0 0 0 240.66 376.59
  Z"
/>
<path fill="#000000" d="
  M 33.60 379.78
  L 33.53 399.95
  A 0.78 0.78 0.0 0 0 34.19 400.72
  L 38.26 401.37
  A 0.28 0.27 12.9 0 1 38.48 401.72
  L 38.40 401.99
  A 0.62 0.62 0.0 0 1 37.81 402.42
  L 26.53 402.47
  A 0.42 0.42 0.0 0 1 26.11 402.03
  L 26.13 401.74
  A 0.69 0.68 2.1 0 1 26.84 401.09
  Q 28.90 401.16 29.96 400.85
  Q 31.07 400.53 31.06 398.55
  Q 31.02 387.99 31.01 377.35
  A 1.48 1.46 4.1 0 0 29.74 375.90
  L 26.55 375.45
  Q 26.34 375.42 26.32 375.21
  L 26.28 374.92
  Q 26.24 374.58 26.58 374.58
  L 34.24 374.50
  A 2.45 2.45 0.0 0 1 36.01 375.23
  L 57.87 397.38
  A 0.53 0.53 0.0 0 0 58.77 397.01
  L 58.75 376.99
  A 0.95 0.94 -86.6 0 0 57.92 376.05
  L 54.11 375.59
  A 0.28 0.28 0.0 0 1 53.86 375.30
  L 53.86 374.95
  Q 53.87 374.51 54.30 374.52
  L 65.21 374.68
  Q 66.19 374.69 65.39 375.26
  C 63.88 376.32 60.94 374.56 61.04 377.78
  C 61.27 385.96 60.94 394.13 61.28 402.38
  A 0.35 0.35 0.0 0 1 60.94 402.75
  C 58.40 402.88 56.69 402.18 54.79 400.32
  Q 44.42 390.20 34.12 379.56
  A 0.31 0.30 -67.5 0 0 33.60 379.78
  Z"
/>
<path fill="#000000" d="
  M 123.18 377.01
  L 123.25 399.81
  A 1.11 1.11 0.0 0 0 124.31 400.92
  L 127.69 401.09
  Q 128.22 401.12 128.22 401.65
  L 128.23 401.98
  A 0.46 0.46 0.0 0 1 127.77 402.45
  L 114.31 402.43
  A 0.75 0.74 78.8 0 1 113.62 401.96
  L 113.49 401.66
  A 0.27 0.26 -14.2 0 1 113.71 401.30
  L 117.55 400.90
  A 0.83 0.82 -0.8 0 0 118.29 400.14
  Q 119.20 388.41 118.49 376.66
  Q 118.45 375.95 117.74 375.96
  L 109.94 376.01
  A 0.97 0.96 -85.0 0 0 108.99 376.81
  Q 108.75 378.13 108.28 379.78
  Q 108.07 380.55 107.27 380.52
  Q 106.74 380.51 106.74 379.99
  L 106.73 375.02
  Q 106.73 374.51 107.23 374.51
  L 134.83 374.52
  A 0.61 0.60 4.2 0 1 135.43 375.20
  L 134.84 379.52
  A 1.14 1.13 -2.7 0 1 133.98 380.46
  L 133.68 380.54
  Q 133.26 380.64 133.23 380.21
  L 133.02 376.79
  Q 132.97 376.11 132.29 376.10
  L 124.24 375.97
  Q 123.18 375.95 123.18 377.01
  Z"
/>
<path fill="#000000" d="
  M 151.70 401.43
  L 151.72 402.22
  A 0.19 0.19 0.0 0 1 151.54 402.41
  L 137.63 402.46
  A 0.19 0.19 0.0 0 1 137.44 402.32
  L 137.24 401.51
  A 0.19 0.19 0.0 0 1 137.40 401.27
  L 141.85 400.87
  A 0.19 0.19 0.0 0 0 142.02 400.68
  L 142.09 376.06
  A 0.19 0.19 0.0 0 0 141.92 375.87
  L 137.72 375.49
  A 0.19 0.19 0.0 0 1 137.55 375.32
  L 137.52 374.82
  A 0.19 0.19 0.0 0 1 137.71 374.62
  L 151.41 374.64
  A 0.19 0.19 0.0 0 1 151.59 374.83
  L 151.58 375.20
  A 0.19 0.19 0.0 0 1 151.41 375.39
  L 147.05 375.79
  A 0.19 0.19 0.0 0 0 146.88 375.98
  L 146.95 400.71
  A 0.19 0.19 0.0 0 0 147.12 400.90
  L 151.53 401.25
  A 0.19 0.19 0.0 0 1 151.70 401.43
  Z"
/>
<path fill="#000000" d="
  M 162.46 376.43
  L 171.73 396.36
  A 0.73 0.72 -44.9 0 0 173.04 396.36
  L 182.31 376.77
  A 0.51 0.50 -72.9 0 0 181.93 376.05
  L 177.77 375.47
  Q 177.60 375.45 177.61 375.28
  L 177.62 375.00
  Q 177.63 374.67 177.97 374.65
  Q 182.73 374.44 187.50 374.68
  Q 190.20 374.81 187.72 375.52
  Q 187.20 375.67 186.03 375.76
  Q 185.48 375.80 185.24 376.29
  L 172.50 402.17
  A 1.30 1.29 -81.1 0 1 171.53 402.88
  Q 170.19 403.10 169.53 401.73
  Q 163.62 389.58 157.86 377.36
  Q 156.71 374.92 153.49 375.51
  Q 153.24 375.56 153.22 375.30
  L 153.19 374.98
  Q 153.17 374.61 153.54 374.61
  L 166.71 374.65
  Q 166.94 374.65 166.94 374.89
  L 166.93 375.28
  Q 166.93 375.49 166.72 375.51
  L 162.83 375.80
  Q 162.19 375.85 162.46 376.43
  Z"
/>
<path fill="#000000" d="
  M 200.01 389.15
  L 200.12 399.50
  A 1.21 1.20 1.8 0 0 201.24 400.69
  Q 207.84 401.19 214.36 400.17
  A 0.85 0.85 0.0 0 0 215.06 399.50
  L 215.57 397.01
  Q 215.72 396.25 216.50 396.22
  L 216.79 396.21
  Q 217.38 396.18 217.34 396.78
  L 216.93 401.85
  Q 216.89 402.35 216.40 402.35
  L 191.21 402.46
  A 0.46 0.45 -87.7 0 1 190.75 401.96
  L 190.80 401.49
  A 0.30 0.30 0.0 0 1 191.06 401.23
  L 194.17 400.88
  A 1.05 1.04 86.9 0 0 195.10 399.84
  L 195.07 376.87
  A 1.02 1.02 0.0 0 0 193.98 375.85
  Q 192.08 376.00 191.07 375.57
  Q 188.63 374.53 191.25 374.53
  L 215.70 374.55
  A 0.56 0.55 -89.5 0 1 216.25 375.12
  Q 216.22 377.51 215.55 379.55
  Q 215.33 380.20 214.78 380.52
  Q 214.31 380.79 214.29 380.26
  L 214.13 377.16
  A 0.98 0.97 -0.9 0 0 213.17 376.24
  L 200.84 375.96
  A 0.72 0.72 0.0 0 0 200.10 376.67
  L 200.00 386.81
  A 0.39 0.39 0.0 0 0 200.40 387.21
  L 209.65 387.01
  A 1.80 1.79 87.4 0 0 211.40 385.09
  Q 211.31 383.79 212.32 383.21
  A 0.50 0.50 0.0 0 1 213.07 383.66
  L 212.88 391.61
  Q 212.86 392.35 212.13 392.27
  L 211.75 392.23
  A 0.47 0.47 0.0 0 1 211.32 391.72
  Q 211.41 390.37 210.81 389.18
  A 0.84 0.83 -11.9 0 0 210.07 388.71
  L 200.60 388.56
  Q 200.01 388.55 200.01 389.15
  Z"
/>
<path fill="#000000" d="
  M 292.16 376.46
  L 292.23 399.98
  A 0.94 0.93 -88.4 0 0 293.11 400.92
  L 296.74 401.16
  A 0.37 0.37 0.0 0 1 297.08 401.48
  L 297.13 401.80
  A 0.56 0.56 0.0 0 1 296.57 402.43
  L 283.26 402.39
  Q 282.71 402.39 282.74 401.83
  Q 282.76 401.50 283.11 401.41
  Q 284.72 400.98 286.26 400.93
  A 1.26 1.26 0.0 0 0 287.47 399.67
  L 287.47 376.90
  A 1.18 1.17 -87.3 0 0 286.41 375.73
  L 282.99 375.43
  Q 282.90 375.42 282.90 375.33
  L 282.90 375.03
  Q 282.91 374.64 283.30 374.64
  L 296.84 374.64
  Q 297.30 374.64 297.14 375.07
  L 297.06 375.31
  A 0.30 0.29 -80.7 0 1 296.80 375.50
  L 292.81 375.76
  A 0.69 0.69 0.0 0 0 292.16 376.46
  Z"
/>
<path fill="#000000" d="
  M 306.56 379.61
  C 306.43 386.21 305.90 393.87 307.33 400.41
  Q 307.45 400.95 308.00 400.97
  L 310.60 401.08
  A 0.41 0.41 0.0 0 1 310.99 401.51
  L 310.98 401.88
  Q 310.96 402.41 310.43 402.41
  L 300.22 402.43
  Q 299.61 402.43 299.58 401.82
  L 299.56 401.47
  A 0.41 0.40 -86.7 0 1 300.03 401.04
  Q 302.03 401.39 303.79 400.46
  Q 304.28 400.20 304.28 399.65
  L 304.32 377.25
  Q 304.32 376.62 303.76 376.34
  Q 301.92 375.42 299.83 375.48
  Q 299.69 375.49 299.66 375.35
  L 299.53 374.83
  Q 299.48 374.63 299.69 374.63
  L 307.43 374.53
  A 2.02 2.01 -22.8 0 1 308.88 375.12
  L 330.78 397.33
  A 0.62 0.62 0.0 0 0 331.84 396.89
  L 331.55 377.07
  A 1.10 1.10 0.0 0 0 330.60 375.99
  L 326.91 375.44
  Q 326.77 375.42 326.77 375.37
  L 326.78 374.95
  Q 326.78 374.59 327.14 374.59
  L 338.47 374.65
  Q 338.86 374.65 338.74 375.02
  L 338.54 375.60
  Q 338.48 375.77 338.31 375.72
  Q 334.36 374.58 334.15 377.99
  Q 333.51 388.45 334.42 402.03
  Q 334.46 402.59 333.91 402.64
  Q 330.62 402.96 327.83 400.17
  Q 317.49 389.85 307.27 379.33
  A 0.41 0.41 0.0 0 0 306.56 379.61
  Z"
/>
<path fill="#000000" d="
  M 351.70 387.15
  C 354.95 387.32 362.29 388.52 362.29 383.87
  Q 362.29 383.28 362.88 383.31
  L 363.33 383.33
  Q 363.96 383.35 363.96 383.99
  L 363.95 391.77
  A 0.57 0.57 0.0 0 1 363.30 392.34
  L 362.99 392.30
  Q 362.09 392.18 362.16 391.28
  Q 362.26 389.85 361.15 388.91
  A 1.16 1.11 -23.5 0 0 360.45 388.65
  L 352.09 388.54
  Q 351.20 388.53 351.20 389.42
  L 351.25 399.25
  A 1.39 1.39 0.0 0 0 352.50 400.63
  Q 358.68 401.27 364.78 400.15
  Q 365.34 400.05 365.61 399.54
  Q 366.35 398.12 366.56 396.53
  Q 366.67 395.72 367.48 395.83
  L 367.83 395.87
  Q 368.84 396.00 368.47 396.94
  Q 367.53 399.32 367.75 401.88
  A 0.53 0.53 0.0 0 1 367.22 402.46
  L 341.97 402.41
  A 0.43 0.43 0.0 0 1 341.55 401.97
  L 341.56 401.62
  Q 341.56 401.38 341.79 401.35
  L 344.96 400.83
  A 1.56 1.55 -4.8 0 0 346.26 399.30
  L 346.27 377.46
  Q 346.27 376.83 345.73 376.50
  Q 343.99 375.45 341.90 375.78
  A 0.48 0.48 0.0 0 1 341.35 375.40
  L 341.29 375.06
  Q 341.19 374.57 341.69 374.57
  L 367.25 374.49
  A 0.62 0.61 -82.4 0 1 367.84 375.27
  L 366.47 380.12
  Q 366.29 380.75 365.68 380.50
  Q 365.19 380.29 365.12 379.56
  Q 365.00 378.22 364.95 377.03
  A 0.83 0.82 -0.4 0 0 364.14 376.24
  L 351.96 375.93
  A 0.67 0.66 -88.7 0 0 351.28 376.59
  L 351.15 386.56
  Q 351.14 387.12 351.70 387.15
  Z"
/>
<path fill="#ffffff" d="
  M 79.87 390.51
  L 85.32 379.73
  A 0.35 0.35 0.0 0 1 85.94 379.73
  L 91.39 390.51
  A 0.35 0.35 0.0 0 1 91.08 391.02
  L 80.18 391.02
  A 0.35 0.35 0.0 0 1 79.87 390.51
  Z"
/>
</svg>
