<?xml version="1.0" encoding="UTF-8" standalone="no"?>
<!DOCTYPE svg PUBLIC "-//W3C//DTD SVG 1.1//EN" "http://www.w3.org/Graphics/SVG/1.1/DTD/svg11.dtd">
<svg xmlns="http://www.w3.org/2000/svg" version="1.1" viewBox="0.00 0.00 339.00 42.00">
<g stroke-width="2.00" fill="none" stroke-linecap="butt">
<path stroke="#808080" vector-effect="non-scaling-stroke" d="
  M 71.42 28.44
  L 68.16 28.63
  Q 67.71 28.65 67.78 29.10
  L 67.83 29.42
  Q 67.90 29.81 68.29 29.81
  L 80.26 29.79
  A 0.34 0.34 0.0 0 0 80.59 29.54
  L 80.67 29.23
  Q 80.79 28.80 80.33 28.79
  Q 77.67 28.77 77.01 27.48
  Q 70.64 15.00 63.98 2.22
  A 0.87 0.87 0.0 0 0 62.44 2.23
  Q 56.38 14.07 49.92 25.95
  Q 48.28 28.95 45.53 28.70
  Q 45.02 28.65 45.11 29.16
  L 45.17 29.55
  A 0.37 0.36 84.6 0 0 45.54 29.86
  L 56.03 29.78
  A 0.44 0.44 0.0 0 0 56.45 29.22
  L 56.35 28.89
  Q 56.32 28.78 56.20 28.77
  L 52.57 28.33
  A 0.62 0.61 -73.9 0 1 52.09 27.45
  L 54.99 21.28
  A 0.80 0.80 0.0 0 1 55.70 20.82
  L 68.34 20.80
  A 0.79 0.78 77.6 0 1 69.05 21.26
  L 72.00 27.48
  Q 72.42 28.39 71.42 28.44"
/>
<path stroke="#808080" vector-effect="non-scaling-stroke" d="
  M 215.42 22.65
  Q 215.41 22.59 215.48 21.88
  Q 215.51 21.49 215.40 21.12
  Q 213.30 14.23 211.70 7.21
  C 211.57 6.63 211.28 6.24 211.04 5.74
  A 1.22 1.22 0.0 0 1 212.19 4.00
  L 214.91 4.10
  Q 215.18 4.11 215.18 3.84
  L 215.19 3.35
  Q 215.19 3.00 214.84 3.00
  L 204.48 3.00
  A 0.45 0.45 0.0 0 0 204.36 3.88
  C 205.88 4.32 206.48 4.54 206.92 6.17
  Q 210.12 17.91 212.88 27.79
  Q 214.27 32.75 216.52 28.12
  L 225.59 9.47
  A 0.34 0.34 0.0 0 1 226.21 9.48
  L 235.09 29.59
  A 1.46 1.46 0.0 0 0 237.82 29.43
  Q 241.51 17.48 246.22 5.83
  C 246.77 4.48 247.50 4.14 248.85 3.95
  Q 249.17 3.91 249.16 3.58
  L 249.15 3.23
  Q 249.14 3.01 248.93 3.01
  L 239.94 2.97
  Q 239.41 2.97 239.65 3.43
  L 239.83 3.78
  A 0.30 0.29 -9.2 0 0 240.06 3.94
  L 242.68 4.15
  A 1.20 1.19 -78.3 0 1 243.71 5.73
  L 238.01 22.48
  Q 237.30 24.57 236.44 22.54
  L 227.89 2.36
  A 0.72 0.72 0.0 0 0 226.58 2.33
  L 216.84 22.79
  Q 215.88 24.80 215.42 22.65"
/>
<path stroke="#808080" vector-effect="non-scaling-stroke" d="
  M 11.96 7.62
  A 0.22 0.22 0.0 0 1 12.34 7.47
  Q 22.02 17.44 31.97 27.29
  Q 34.81 30.11 37.81 30.26
  Q 38.49 30.30 38.49 29.61
  L 38.41 5.28
  Q 38.41 4.60 39.05 4.36
  Q 40.69 3.76 42.46 3.96
  Q 42.72 3.99 42.75 3.73
  L 42.78 3.33
  A 0.25 0.24 3.3 0 0 42.54 3.07
  L 32.00 2.90
  Q 31.60 2.89 31.60 3.30
  L 31.59 3.56
  A 0.32 0.31 4.3 0 0 31.86 3.87
  L 35.80 4.52
  A 0.64 0.64 0.0 0 1 36.33 5.15
  L 36.29 25.04
  A 0.39 0.39 0.0 0 1 35.62 25.32
  L 14.35 3.69
  A 2.21 2.21 0.0 0 0 12.79 3.02
  L 5.31 2.94
  Q 4.95 2.94 5.02 3.29
  L 5.10 3.69
  A 0.36 0.36 0.0 0 0 5.49 3.98
  Q 7.41 3.77 9.11 4.53
  Q 9.72 4.81 9.72 5.48
  L 9.68 27.30
  A 1.14 1.13 88.1 0 1 8.62 28.44
  L 5.23 28.66
  Q 4.77 28.69 4.84 29.14
  L 4.88 29.43
  Q 4.94 29.81 5.33 29.81
  L 16.11 29.81
  A 0.52 0.51 -4.7 0 0 16.62 29.22
  L 16.58 28.95
  Q 16.56 28.81 16.42 28.80
  L 12.66 28.30
  A 0.64 0.63 3.6 0 1 12.10 27.67
  L 11.96 7.62"
/>
<path stroke="#808080" vector-effect="non-scaling-stroke" d="
  M 98.74 4.41
  L 107.03 4.36
  Q 107.71 4.36 107.72 5.03
  L 107.77 8.11
  A 0.53 0.52 1.1 0 0 108.28 8.63
  L 108.64 8.64
  A 0.52 0.51 -85.6 0 0 109.16 8.19
  L 109.73 3.48
  Q 109.80 2.93 109.24 2.92
  L 82.86 2.87
  Q 82.34 2.87 82.34 3.39
  L 82.31 8.01
  Q 82.31 8.63 82.93 8.68
  Q 83.21 8.70 83.48 8.55
  Q 83.81 8.35 83.96 7.80
  Q 84.33 6.47 84.48 5.35
  A 1.22 1.21 -85.8 0 1 85.70 4.29
  L 92.66 4.40
  Q 93.63 4.41 93.69 5.39
  Q 94.33 16.41 93.50 27.41
  A 1.16 1.16 0.0 0 1 92.45 28.48
  L 89.23 28.79
  Q 88.94 28.82 88.97 29.11
  L 89.01 29.41
  Q 89.05 29.82 89.47 29.82
  L 102.57 29.81
  A 0.41 0.41 0.0 0 0 102.98 29.43
  L 103.02 29.01
  Q 103.04 28.73 102.76 28.71
  L 99.52 28.48
  A 1.48 1.47 1.9 0 1 98.15 27.02
  L 98.06 5.10
  A 0.69 0.68 -0.8 0 1 98.74 4.41"
/>
<path stroke="#808080" vector-effect="non-scaling-stroke" d="
  M 182.49 17.21
  L 182.90 19.54
  Q 182.99 20.04 183.50 20.01
  L 183.79 19.99
  Q 184.20 19.97 184.21 19.55
  L 184.41 11.21
  A 0.30 0.30 0.0 0 0 183.90 10.99
  Q 182.72 12.11 182.68 13.82
  A 1.31 1.31 0.0 0 1 181.39 15.10
  L 172.23 15.19
  A 0.38 0.38 0.0 0 1 171.85 14.81
  L 171.90 5.19
  A 0.90 0.89 -89.1 0 1 172.81 4.30
  L 184.91 4.58
  Q 185.47 4.59 185.48 5.16
  L 185.52 8.66
  Q 185.53 9.08 185.92 8.93
  Q 186.55 8.71 186.94 8.24
  A 0.91 0.88 69.1 0 0 187.15 7.75
  L 187.61 3.55
  Q 187.68 2.88 187.00 2.88
  L 162.79 2.94
  A 0.31 0.31 0.0 0 0 162.48 3.27
  L 162.49 3.59
  A 0.17 0.17 0.0 0 0 162.64 3.76
  L 166.10 4.31
  Q 167.22 4.48 167.22 5.61
  L 167.27 27.02
  A 1.46 1.46 0.0 0 1 165.98 28.47
  L 163.27 28.80
  Q 163.05 28.83 163.05 29.06
  L 163.06 29.31
  Q 163.07 29.85 163.61 29.85
  L 187.52 29.75
  Q 188.15 29.74 188.18 29.12
  L 188.49 24.00
  A 0.35 0.35 0.0 0 0 188.02 23.65
  L 187.70 23.77
  Q 187.01 24.03 186.86 24.74
  L 186.36 26.98
  A 0.96 0.95 -88.6 0 1 185.60 27.71
  C 183.39 28.11 175.47 29.39 172.47 27.92
  Q 171.93 27.66 171.93 27.06
  L 171.85 17.06
  Q 171.85 16.48 172.44 16.48
  L 181.72 16.56
  Q 182.38 16.56 182.49 17.21"
/>
<path stroke="#808080" vector-effect="non-scaling-stroke" d="
  M 274.13 8.32
  Q 274.10 6.69 275.23 7.87
  Q 285.67 18.76 296.20 29.08
  Q 297.70 30.55 300.48 29.98
  Q 300.99 29.88 300.96 29.36
  Q 300.11 17.32 300.71 5.25
  A 0.93 0.91 79.5 0 1 301.24 4.46
  Q 302.87 3.69 304.63 4.18
  A 0.31 0.31 0.0 0 0 305.02 3.97
  L 305.15 3.58
  A 0.41 0.41 0.0 0 0 304.76 3.04
  L 293.82 2.95
  Q 293.47 2.95 293.60 3.27
  L 293.71 3.53
  Q 293.80 3.74 294.02 3.78
  L 297.54 4.44
  Q 298.24 4.57 298.25 5.27
  L 298.54 24.49
  Q 298.56 25.85 297.58 24.90
  Q 287.49 15.13 277.91 4.84
  C 275.25 1.99 271.44 3.09 267.81 2.81
  Q 267.53 2.79 267.52 3.06
  L 267.50 3.55
  A 0.46 0.45 -3.7 0 0 268.03 4.01
  Q 270.18 3.64 271.72 5.00
  Q 272.09 5.33 272.09 5.83
  L 272.03 26.89
  A 1.69 1.68 -1.5 0 1 270.44 28.56
  L 267.97 28.69
  A 0.46 0.46 0.0 0 0 267.54 29.20
  L 267.57 29.46
  A 0.47 0.47 0.0 0 0 268.04 29.89
  L 277.83 29.83
  A 0.58 0.58 0.0 0 0 278.41 29.26
  L 278.41 28.94
  A 0.39 0.38 88.1 0 0 277.99 28.54
  Q 276.56 28.66 275.17 28.29
  Q 274.48 28.10 274.47 27.39
  L 274.13 8.32"
/>
<path stroke="#808080" vector-effect="non-scaling-stroke" d="
  M 330.52 5.19
  L 330.45 8.45
  Q 330.44 8.94 330.89 8.75
  Q 331.06 8.67 331.22 8.56
  Q 331.54 8.33 331.72 7.83
  Q 332.47 5.77 332.72 3.47
  Q 332.78 2.89 332.20 2.89
  L 307.74 2.96
  A 0.25 0.24 -6.5 0 0 307.50 3.26
  L 307.61 3.77
  A 0.33 0.32 -2.4 0 0 307.89 4.02
  L 311.37 4.45
  A 1.19 1.19 0.0 0 1 312.41 5.63
  L 312.41 26.46
  A 1.96 1.94 -10.5 0 1 311.15 28.28
  Q 309.74 28.81 308.22 28.76
  Q 307.60 28.73 307.83 29.32
  L 307.94 29.60
  Q 308.04 29.85 308.31 29.85
  L 332.24 29.80
  Q 332.80 29.80 332.86 29.25
  L 333.45 24.27
  Q 333.52 23.71 332.96 23.62
  L 332.63 23.57
  A 0.71 0.70 9.8 0 0 331.83 24.13
  L 331.32 26.70
  A 1.03 1.02 -1.5 0 1 330.57 27.48
  Q 324.53 29.02 318.31 28.21
  A 1.42 1.41 -86.5 0 1 317.08 26.81
  L 317.00 17.14
  Q 316.99 16.52 317.61 16.52
  L 326.92 16.52
  Q 327.32 16.52 327.38 16.92
  L 327.77 19.53
  A 0.53 0.53 0.0 0 0 328.28 19.98
  L 328.73 19.99
  A 0.48 0.48 0.0 0 0 329.22 19.52
  L 329.40 11.23
  Q 329.41 10.69 328.98 11.01
  L 328.22 11.56
  A 0.59 0.56 79.7 0 0 328.01 11.88
  L 327.44 14.35
  A 0.81 0.80 -84.4 0 1 326.68 14.98
  L 317.67 15.29
  Q 317.01 15.32 317.01 14.66
  L 317.02 4.91
  Q 317.02 4.33 317.59 4.35
  L 329.95 4.59
  Q 330.54 4.60 330.52 5.19"
/>
<path stroke="#808080" vector-effect="non-scaling-stroke" d="
  M 115.95 28.18
  Q 114.00 28.82 111.94 28.73
  A 0.31 0.31 0.0 0 0 111.65 29.18
  L 111.82 29.53
  A 0.53 0.52 75.5 0 0 112.28 29.81
  L 125.19 29.86
  A 0.37 0.37 0.0 0 0 125.54 29.36
  Q 125.47 29.18 125.44 29.05
  Q 125.36 28.72 125.02 28.71
  L 122.48 28.61
  A 1.63 1.63 0.0 0 1 120.92 26.98
  L 120.91 5.19
  A 1.17 1.17 0.0 0 1 122.06 4.02
  L 125.09 3.96
  Q 125.24 3.95 125.28 3.81
  L 125.39 3.44
  Q 125.51 3.02 125.07 3.02
  L 113.00 2.99
  Q 111.27 2.98 112.74 3.83
  Q 113.39 4.20 114.83 3.97
  A 1.27 1.27 0.0 0 1 116.30 5.22
  L 116.28 27.73
  A 0.47 0.46 81.7 0 1 115.95 28.18"
/>
<path stroke="#808080" vector-effect="non-scaling-stroke" d="
  M 154.89 5.22
  L 145.93 24.15
  A 0.62 0.62 0.0 0 1 144.81 24.15
  L 135.93 4.99
  A 0.68 0.68 0.0 0 1 136.56 4.02
  L 139.53 4.06
  A 0.57 0.57 0.0 0 0 140.11 3.49
  L 140.11 3.24
  Q 140.11 3.02 139.90 3.02
  L 127.26 2.99
  Q 127.14 2.99 127.12 3.12
  L 127.09 3.41
  Q 127.06 3.71 127.36 3.70
  Q 130.45 3.59 131.80 6.43
  Q 137.05 17.55 142.36 28.64
  Q 142.74 29.43 143.16 29.85
  A 1.48 1.48 0.0 0 0 145.53 29.46
  L 157.50 5.06
  Q 157.74 4.58 158.21 4.33
  Q 159.42 3.69 160.81 3.68
  Q 160.93 3.68 160.92 3.56
  L 160.90 3.29
  Q 160.87 2.96 160.54 2.96
  L 150.74 2.98
  Q 150.43 2.99 150.52 3.28
  L 150.66 3.77
  Q 150.70 3.88 150.81 3.90
  L 154.45 4.40
  Q 155.23 4.51 154.89 5.22"
/>
<path stroke="#808080" vector-effect="non-scaling-stroke" d="
  M 255.31 28.19
  Q 253.65 28.87 251.87 28.69
  Q 251.43 28.65 251.50 29.09
  L 251.55 29.45
  A 0.44 0.43 -4.7 0 0 251.98 29.81
  L 264.76 29.85
  A 0.44 0.43 80.8 0 0 265.17 29.27
  L 265.08 28.99
  A 0.42 0.41 82.9 0 0 264.74 28.72
  L 261.12 28.38
  Q 260.46 28.31 260.45 27.64
  L 260.38 5.34
  A 1.33 1.33 0.0 0 1 261.71 4.00
  L 264.89 4.02
  Q 265.16 4.02 265.16 3.75
  L 265.17 3.36
  Q 265.17 2.99 264.80 2.99
  L 252.03 3.01
  Q 251.81 3.01 251.76 3.22
  L 251.64 3.70
  A 0.32 0.32 0.0 0 0 251.97 4.10
  L 253.89 3.98
  A 1.92 1.91 -1.5 0 1 255.92 5.90
  L 255.86 27.37
  A 0.89 0.87 79.2 0 1 255.31 28.19"
/>
<path stroke="#808080" vector-effect="non-scaling-stroke" d="
  M 56.62 18.13
  A 0.49 0.49 0.0 0 0 57.06 18.84
  L 67.07 18.86
  A 0.49 0.49 0.0 0 0 67.51 18.15
  L 62.52 8.25
  A 0.49 0.49 0.0 0 0 61.64 8.25
  L 56.62 18.13"
/>
</g>
<g>
<path fill="#000000" d="
  M 72.00 27.48
  L 69.05 21.26
  A 0.79 0.78 77.6 0 0 68.34 20.80
  L 55.70 20.82
  A 0.80 0.80 0.0 0 0 54.99 21.28
  L 52.09 27.45
  A 0.62 0.61 -73.9 0 0 52.57 28.33
  L 56.20 28.77
  Q 56.32 28.78 56.35 28.89
  L 56.45 29.22
  A 0.44 0.44 0.0 0 1 56.03 29.78
  L 45.54 29.86
  A 0.37 0.36 84.6 0 1 45.17 29.55
  L 45.11 29.16
  Q 45.02 28.65 45.53 28.70
  Q 48.28 28.95 49.92 25.95
  Q 56.38 14.07 62.44 2.23
  A 0.87 0.87 0.0 0 1 63.98 2.22
  Q 70.64 15.00 77.01 27.48
  Q 77.67 28.77 80.33 28.79
  Q 80.79 28.80 80.67 29.23
  L 80.59 29.54
  A 0.34 0.34 0.0 0 1 80.26 29.79
  L 68.29 29.81
  Q 67.90 29.81 67.83 29.42
  L 67.78 29.10
  Q 67.71 28.65 68.16 28.63
  L 71.42 28.44
  Q 72.42 28.39 72.00 27.48
  Z
  M 56.62 18.13
  A 0.49 0.49 0.0 0 0 57.06 18.84
  L 67.07 18.86
  A 0.49 0.49 0.0 0 0 67.51 18.15
  L 62.52 8.25
  A 0.49 0.49 0.0 0 0 61.64 8.25
  L 56.62 18.13
  Z"
/>
<path fill="#000000" d="
  M 215.42 22.65
  Q 215.88 24.80 216.84 22.79
  L 226.58 2.33
  A 0.72 0.72 0.0 0 1 227.89 2.36
  L 236.44 22.54
  Q 237.30 24.57 238.01 22.48
  L 243.71 5.73
  A 1.20 1.19 -78.3 0 0 242.68 4.15
  L 240.06 3.94
  A 0.30 0.29 -9.2 0 1 239.83 3.78
  L 239.65 3.43
  Q 239.41 2.97 239.94 2.97
  L 248.93 3.01
  Q 249.14 3.01 249.15 3.23
  L 249.16 3.58
  Q 249.17 3.91 248.85 3.95
  C 247.50 4.14 246.77 4.48 246.22 5.83
  Q 241.51 17.48 237.82 29.43
  A 1.46 1.46 0.0 0 1 235.09 29.59
  L 226.21 9.48
  A 0.34 0.34 0.0 0 0 225.59 9.47
  L 216.52 28.12
  Q 214.27 32.75 212.88 27.79
  Q 210.12 17.91 206.92 6.17
  C 206.48 4.54 205.88 4.32 204.36 3.88
  A 0.45 0.45 0.0 0 1 204.48 3.00
  L 214.84 3.00
  Q 215.19 3.00 215.19 3.35
  L 215.18 3.84
  Q 215.18 4.11 214.91 4.10
  L 212.19 4.00
  A 1.22 1.22 0.0 0 0 211.04 5.74
  C 211.28 6.24 211.57 6.63 211.70 7.21
  Q 213.30 14.23 215.40 21.12
  Q 215.51 21.49 215.48 21.88
  Q 215.41 22.59 215.42 22.65
  Z"
/>
<path fill="#000000" d="
  M 11.96 7.62
  L 12.10 27.67
  A 0.64 0.63 3.6 0 0 12.66 28.30
  L 16.42 28.80
  Q 16.56 28.81 16.58 28.95
  L 16.62 29.22
  A 0.52 0.51 -4.7 0 1 16.11 29.81
  L 5.33 29.81
  Q 4.94 29.81 4.88 29.43
  L 4.84 29.14
  Q 4.77 28.69 5.23 28.66
  L 8.62 28.44
  A 1.14 1.13 88.1 0 0 9.68 27.30
  L 9.72 5.48
  Q 9.72 4.81 9.11 4.53
  Q 7.41 3.77 5.49 3.98
  A 0.36 0.36 0.0 0 1 5.10 3.69
  L 5.02 3.29
  Q 4.95 2.94 5.31 2.94
  L 12.79 3.02
  A 2.21 2.21 0.0 0 1 14.35 3.69
  L 35.62 25.32
  A 0.39 0.39 0.0 0 0 36.29 25.04
  L 36.33 5.15
  A 0.64 0.64 0.0 0 0 35.80 4.52
  L 31.86 3.87
  A 0.32 0.31 4.3 0 1 31.59 3.56
  L 31.60 3.30
  Q 31.60 2.89 32.00 2.90
  L 42.54 3.07
  A 0.25 0.24 3.3 0 1 42.78 3.33
  L 42.75 3.73
  Q 42.72 3.99 42.46 3.96
  Q 40.69 3.76 39.05 4.36
  Q 38.41 4.60 38.41 5.28
  L 38.49 29.61
  Q 38.49 30.30 37.81 30.26
  Q 34.81 30.11 31.97 27.29
  Q 22.02 17.44 12.34 7.47
  A 0.22 0.22 0.0 0 0 11.96 7.62
  Z"
/>
<path fill="#000000" d="
  M 98.06 5.10
  L 98.15 27.02
  A 1.48 1.47 1.9 0 0 99.52 28.48
  L 102.76 28.71
  Q 103.04 28.73 103.02 29.01
  L 102.98 29.43
  A 0.41 0.41 0.0 0 1 102.57 29.81
  L 89.47 29.82
  Q 89.05 29.82 89.01 29.41
  L 88.97 29.11
  Q 88.94 28.82 89.23 28.79
  L 92.45 28.48
  A 1.16 1.16 0.0 0 0 93.50 27.41
  Q 94.33 16.41 93.69 5.39
  Q 93.63 4.41 92.66 4.40
  L 85.70 4.29
  A 1.22 1.21 -85.8 0 0 84.48 5.35
  Q 84.33 6.47 83.96 7.80
  Q 83.81 8.35 83.48 8.55
  Q 83.21 8.70 82.93 8.68
  Q 82.31 8.63 82.31 8.01
  L 82.34 3.39
  Q 82.34 2.87 82.86 2.87
  L 109.24 2.92
  Q 109.80 2.93 109.73 3.48
  L 109.16 8.19
  A 0.52 0.51 -85.6 0 1 108.64 8.64
  L 108.28 8.63
  A 0.53 0.52 1.1 0 1 107.77 8.11
  L 107.72 5.03
  Q 107.71 4.36 107.03 4.36
  L 98.74 4.41
  A 0.69 0.68 -0.8 0 0 98.06 5.10
  Z"
/>
<path fill="#000000" d="
  M 181.72 16.56
  L 172.44 16.48
  Q 171.85 16.48 171.85 17.06
  L 171.93 27.06
  Q 171.93 27.66 172.47 27.92
  C 175.47 29.39 183.39 28.11 185.60 27.71
  A 0.96 0.95 -88.6 0 0 186.36 26.98
  L 186.86 24.74
  Q 187.01 24.03 187.70 23.77
  L 188.02 23.65
  A 0.35 0.35 0.0 0 1 188.49 24.00
  L 188.18 29.12
  Q 188.15 29.74 187.52 29.75
  L 163.61 29.85
  Q 163.07 29.85 163.06 29.31
  L 163.05 29.06
  Q 163.05 28.83 163.27 28.80
  L 165.98 28.47
  A 1.46 1.46 0.0 0 0 167.27 27.02
  L 167.22 5.61
  Q 167.22 4.48 166.10 4.31
  L 162.64 3.76
  A 0.17 0.17 0.0 0 1 162.49 3.59
  L 162.48 3.27
  A 0.31 0.31 0.0 0 1 162.79 2.94
  L 187.00 2.88
  Q 187.68 2.88 187.61 3.55
  L 187.15 7.75
  A 0.91 0.88 69.1 0 1 186.94 8.24
  Q 186.55 8.71 185.92 8.93
  Q 185.53 9.08 185.52 8.66
  L 185.48 5.16
  Q 185.47 4.59 184.91 4.58
  L 172.81 4.30
  A 0.90 0.89 -89.1 0 0 171.90 5.19
  L 171.85 14.81
  A 0.38 0.38 0.0 0 0 172.23 15.19
  L 181.39 15.10
  A 1.31 1.31 0.0 0 0 182.68 13.82
  Q 182.72 12.11 183.90 10.99
  A 0.30 0.30 0.0 0 1 184.41 11.21
  L 184.21 19.55
  Q 184.20 19.97 183.79 19.99
  L 183.50 20.01
  Q 182.99 20.04 182.90 19.54
  L 182.49 17.21
  Q 182.38 16.56 181.72 16.56
  Z"
/>
<path fill="#000000" d="
  M 274.13 8.32
  L 274.47 27.39
  Q 274.48 28.10 275.17 28.29
  Q 276.56 28.66 277.99 28.54
  A 0.39 0.38 88.1 0 1 278.41 28.94
  L 278.41 29.26
  A 0.58 0.58 0.0 0 1 277.83 29.83
  L 268.04 29.89
  A 0.47 0.47 0.0 0 1 267.57 29.46
  L 267.54 29.20
  A 0.46 0.46 0.0 0 1 267.97 28.69
  L 270.44 28.56
  A 1.69 1.68 -1.5 0 0 272.03 26.89
  L 272.09 5.83
  Q 272.09 5.33 271.72 5.00
  Q 270.18 3.64 268.03 4.01
  A 0.46 0.45 -3.7 0 1 267.50 3.55
  L 267.52 3.06
  Q 267.53 2.79 267.81 2.81
  C 271.44 3.09 275.25 1.99 277.91 4.84
  Q 287.49 15.13 297.58 24.90
  Q 298.56 25.85 298.54 24.49
  L 298.25 5.27
  Q 298.24 4.57 297.54 4.44
  L 294.02 3.78
  Q 293.80 3.74 293.71 3.53
  L 293.60 3.27
  Q 293.47 2.95 293.82 2.95
  L 304.76 3.04
  A 0.41 0.41 0.0 0 1 305.15 3.58
  L 305.02 3.97
  A 0.31 0.31 0.0 0 1 304.63 4.18
  Q 302.87 3.69 301.24 4.46
  A 0.93 0.91 79.5 0 0 300.71 5.25
  Q 300.11 17.32 300.96 29.36
  Q 300.99 29.88 300.48 29.98
  Q 297.70 30.55 296.20 29.08
  Q 285.67 18.76 275.23 7.87
  Q 274.10 6.69 274.13 8.32
  Z"
/>
<path fill="#000000" d="
  M 329.95 4.59
  L 317.59 4.35
  Q 317.02 4.33 317.02 4.91
  L 317.01 14.66
  Q 317.01 15.32 317.67 15.29
  L 326.68 14.98
  A 0.81 0.80 -84.4 0 0 327.44 14.35
  L 328.01 11.88
  A 0.59 0.56 79.7 0 1 328.22 11.56
  L 328.98 11.01
  Q 329.41 10.69 329.40 11.23
  L 329.22 19.52
  A 0.48 0.48 0.0 0 1 328.73 19.99
  L 328.28 19.98
  A 0.53 0.53 0.0 0 1 327.77 19.53
  L 327.38 16.92
  Q 327.32 16.52 326.92 16.52
  L 317.61 16.52
  Q 316.99 16.52 317.00 17.14
  L 317.08 26.81
  A 1.42 1.41 -86.5 0 0 318.31 28.21
  Q 324.53 29.02 330.57 27.48
  A 1.03 1.02 -1.5 0 0 331.32 26.70
  L 331.83 24.13
  A 0.71 0.70 9.8 0 1 332.63 23.57
  L 332.96 23.62
  Q 333.52 23.71 333.45 24.27
  L 332.86 29.25
  Q 332.80 29.80 332.24 29.80
  L 308.31 29.85
  Q 308.04 29.85 307.94 29.60
  L 307.83 29.32
  Q 307.60 28.73 308.22 28.76
  Q 309.74 28.81 311.15 28.28
  A 1.96 1.94 -10.5 0 0 312.41 26.46
  L 312.41 5.63
  A 1.19 1.19 0.0 0 0 311.37 4.45
  L 307.89 4.02
  A 0.33 0.32 -2.4 0 1 307.61 3.77
  L 307.50 3.26
  A 0.25 0.24 -6.5 0 1 307.74 2.96
  L 332.20 2.89
  Q 332.78 2.89 332.72 3.47
  Q 332.47 5.77 331.72 7.83
  Q 331.54 8.33 331.22 8.56
  Q 331.06 8.67 330.89 8.75
  Q 330.44 8.94 330.45 8.45
  L 330.52 5.19
  Q 330.54 4.60 329.95 4.59
  Z"
/>
<path fill="#000000" d="
  M 115.95 28.18
  A 0.47 0.46 81.7 0 0 116.28 27.73
  L 116.30 5.22
  A 1.27 1.27 0.0 0 0 114.83 3.97
  Q 113.39 4.20 112.74 3.83
  Q 111.27 2.98 113.00 2.99
  L 125.07 3.02
  Q 125.51 3.02 125.39 3.44
  L 125.28 3.81
  Q 125.24 3.95 125.09 3.96
  L 122.06 4.02
  A 1.17 1.17 0.0 0 0 120.91 5.19
  L 120.92 26.98
  A 1.63 1.63 0.0 0 0 122.48 28.61
  L 125.02 28.71
  Q 125.36 28.72 125.44 29.05
  Q 125.47 29.18 125.54 29.36
  A 0.37 0.37 0.0 0 1 125.19 29.86
  L 112.28 29.81
  A 0.53 0.52 75.5 0 1 111.82 29.53
  L 111.65 29.18
  A 0.31 0.31 0.0 0 1 111.94 28.73
  Q 114.00 28.82 115.95 28.18
  Z"
/>
<path fill="#000000" d="
  M 154.45 4.40
  L 150.81 3.90
  Q 150.70 3.88 150.66 3.77
  L 150.52 3.28
  Q 150.43 2.99 150.74 2.98
  L 160.54 2.96
  Q 160.87 2.96 160.90 3.29
  L 160.92 3.56
  Q 160.93 3.68 160.81 3.68
  Q 159.42 3.69 158.21 4.33
  Q 157.74 4.58 157.50 5.06
  L 145.53 29.46
  A 1.48 1.48 0.0 0 1 143.16 29.85
  Q 142.74 29.43 142.36 28.64
  Q 137.05 17.55 131.80 6.43
  Q 130.45 3.59 127.36 3.70
  Q 127.06 3.71 127.09 3.41
  L 127.12 3.12
  Q 127.14 2.99 127.26 2.99
  L 139.90 3.02
  Q 140.11 3.02 140.11 3.24
  L 140.11 3.49
  A 0.57 0.57 0.0 0 1 139.53 4.06
  L 136.56 4.02
  A 0.68 0.68 0.0 0 0 135.93 4.99
  L 144.81 24.15
  A 0.62 0.62 0.0 0 0 145.93 24.15
  L 154.89 5.22
  Q 155.23 4.51 154.45 4.40
  Z"
/>
<path fill="#000000" d="
  M 255.31 28.19
  A 0.89 0.87 79.2 0 0 255.86 27.37
  L 255.92 5.90
  A 1.92 1.91 -1.5 0 0 253.89 3.98
  L 251.97 4.10
  A 0.32 0.32 0.0 0 1 251.64 3.70
  L 251.76 3.22
  Q 251.81 3.01 252.03 3.01
  L 264.80 2.99
  Q 265.17 2.99 265.17 3.36
  L 265.16 3.75
  Q 265.16 4.02 264.89 4.02
  L 261.71 4.00
  A 1.33 1.33 0.0 0 0 260.38 5.34
  L 260.45 27.64
  Q 260.46 28.31 261.12 28.38
  L 264.74 28.72
  A 0.42 0.41 82.9 0 1 265.08 28.99
  L 265.17 29.27
  A 0.44 0.43 80.8 0 1 264.76 29.85
  L 251.98 29.81
  A 0.44 0.43 -4.7 0 1 251.55 29.45
  L 251.50 29.09
  Q 251.43 28.65 251.87 28.69
  Q 253.65 28.87 255.31 28.19
  Z"
/>
</g>

</svg>
